0
SECTION
2
HEADER
9
$INSUNITS
70
4
9
$ACADVER
1
AC1014
9
$HANDSEED
5
FFFF
0
ENDSEC
0
SECTION
2
TABLES
0
TABLE
2
VPORT
5
8
100
AcDbSymbolTable
0
ENDTAB
0
TABLE
2
LTYPE
5
5
100
AcDbSymbolTable
70
2
0
LTYPE
5
14
100
AcDbSymbolTableRecord
100
AcDbLinetypeTableRecord
2
BYBLOCK
70
0
0
LTYPE
5
15
100
AcDbSymbolTableRecord
100
AcDbLinetypeTableRecord
2
BYLAYER
70
0
0
ENDTAB
0
TABLE
2
LAYER
5
2
100
AcDbSymbolTable
70
3
0
LAYER
5
50
100
AcDbSymbolTableRecord
100
AcDbLayerTableRecord
2
0
70
0
6
CONTINUOUS
0
LAYER
5
51
100
AcDbSymbolTableRecord
100
AcDbLayerTableRecord
2
CUTOUTS
70
0
62
1
6
CONTINUOUS
0
LAYER
5
52
100
AcDbSymbolTableRecord
100
AcDbLayerTableRecord
2
PERIMETER
70
0
62
5
6
CONTINUOUS
0
ENDTAB
0
TABLE
2
STYLE
5
3
100
AcDbSymbolTable
70
1
0
STYLE
5
11
100
AcDbSymbolTableRecord
100
AcDbTextStyleTableRecord
2
STANDARD
70
0
0
ENDTAB
0
TABLE
2
VIEW
5
6
100
AcDbSymbolTable
0
ENDTAB
0
TABLE
2
UCS
5
7
100
AcDbSymbolTable
0
ENDTAB
0
TABLE
2
APPID
5
9
100
AcDbSymbolTable
70
1
0
APPID
5
12
100
AcDbSymbolTableRecord
100
AcDbRegAppTableRecord
2
ACAD
70
0
0
ENDTAB
0
TABLE
2
DIMSTYLE
5
A
100
AcDbSymbolTable
0
ENDTAB
0
TABLE
2
BLOCK_RECORD
5
1
100
AcDbSymbolTable
70
2
0
BLOCK_RECORD
5
1F
100
AcDbSymbolTableRecord
100
AcDbBlockTableRecord
2
*MODEL_SPACE
0
BLOCK_RECORD
5
1B
100
AcDbSymbolTableRecord
100
AcDbBlockTableRecord
2
*PAPER_SPACE
0
ENDTAB
0
ENDSEC
0
SECTION
2
BLOCKS
0
BLOCK
5
20
100
AcDbEntity
100
AcDbBlockBegin
2
*MODEL_SPACE
0
ENDBLK
5
21
100
AcDbEntity
100
AcDbBlockEnd
0
BLOCK
5
1C
100
AcDbEntity
100
AcDbBlockBegin
2
*PAPER_SPACE
0
ENDBLK
5
1D
100
AcDbEntity
100
AcDbBlockEnd
0
ENDSEC
0
SECTION
2
ENTITIES
0
LINE
5
100
100
AcDbEntity
8
PERIMETER
100
AcDbLine
10
-8.6732695392400316
20
11.936807232568807
30
0
11
-5.1099962747096939
21
11.936807232568842
31
0
0
LINE
5
101
100
AcDbEntity
8
PERIMETER
100
AcDbLine
10
-5.1099962747096939
20
11.936807232568842
30
0
11
-5.1099889453347558
21
8.5012684431300301
31
0
0
SPLINE
5
102
100
AcDbEntity
8
PERIMETER
100
AcDbSpline
70
0
71
3
72
23
73
19
74
0
42
0.000000001
43
0.0000000001
44
0.0000000001
40
-1
40
-1
40
-1
40
-1
40
-0.77237893919928191
40
-0.77237893919928191
40
-0.77237893919928191
40
-0.55576618257276178
40
-0.55576618257276178
40
-0.55576618257276178
40
-0.36518701085831884
40
-0.36518701085831884
40
-0.36518701085831884
40
-0.13097559692105112
40
-0.13097559692105112
40
-0.13097559692105112
40
0
40
0
40
0
40
0.00088049922411027523
40
0.00088049922411027523
40
0.00088049922411027523
40
0.00088049922411027523
10
-5.1099889453347558
20
8.5012684431300301
30
0
10
-5.1332221521275301
20
6.4887710360933859
30
0
10
-5.2598072204695612
20
4.001579721299855
30
0
10
-5.5124739152977043
20
1.1463843122578155
30
0
10
-5.7529210386082852
20
-1.5707269518947342
30
0
10
-6.1096671013266857
20
-4.5948450651755124
30
0
10
-6.6504164887334483
20
-7.374761734661277
30
0
10
-7.1261759590528939
20
-9.820574366182484
30
0
10
-7.7475612488104417
20
-12.03676898823673
30
0
10
-8.5463668178525509
20
-14.062300467778144
30
0
10
-9.5280553208682051
20
-16.551568248355295
30
0
10
-10.780011562057155
20
-18.847526023854542
30
0
10
-12.298861067351581
20
-21.274325268927932
30
0
10
-13.148231374481298
20
-22.631438803181965
30
0
10
-14.079366529779769
20
-24.01754058662501
30
0
10
-15.089602842731189
20
-25.436194891053567
30
0
10
-15.096401895154052
20
-25.445742662067232
30
0
10
-15.103200947576916
20
-25.455290433080933
30
0
10
-15.10999999999985
20
-25.464838204094704
30
0
0
LINE
5
103
100
AcDbEntity
8
PERIMETER
100
AcDbLine
10
-15.109999999999815
20
-25.464838204094669
30
0
11
-15.109999999999992
21
-37.609999068677418
31
0
0
LINE
5
104
100
AcDbEntity
8
PERIMETER
100
AcDbLine
10
-15.109999999999992
20
-37.609999068677418
30
0
11
-4.8900000000000077
21
-37.609999068677418
31
0
0
LINE
5
105
100
AcDbEntity
8
PERIMETER
100
AcDbLine
10
-4.8900000000000077
20
-37.609999068677418
30
0
11
-4.8900000000000077
21
-27.609999068677418
31
0
0
LINE
5
106
100
AcDbEntity
8
PERIMETER
100
AcDbLine
10
-4.8900000000000077
20
-27.609999068677418
30
0
11
4.8900000000000077
21
-27.609999068677418
31
0
0
LINE
5
107
100
AcDbEntity
8
PERIMETER
100
AcDbLine
10
4.8900000000000077
20
-27.609999068677418
30
0
11
4.8900000000000077
21
-37.609999068677418
31
0
0
LINE
5
108
100
AcDbEntity
8
PERIMETER
100
AcDbLine
10
4.8900000000000077
20
-37.609999068677418
30
0
11
15.109999999999992
21
-37.609999068677418
31
0
0
LINE
5
109
100
AcDbEntity
8
PERIMETER
100
AcDbLine
10
15.109999999999992
20
-37.609999068677418
30
0
11
15.11000000000017
21
-26.470798768903308
31
0
0
SPLINE
5
10A
100
AcDbEntity
8
PERIMETER
100
AcDbSpline
70
0
71
3
72
26
73
22
74
0
42
0.000000001
43
0.0000000001
44
0.0000000001
40
-0.00071811290917967157
40
-0.00071811290917967157
40
-0.00071811290917967157
40
-0.00071811290917967157
40
0
40
0
40
0
40
0.19541350983296324
40
0.19541350983296324
40
0.19541350983296324
40
0.35847659217089078
40
0.35847659217089078
40
0.35847659217089078
40
0.53692156448989259
40
0.53692156448989259
40
0.53692156448989259
40
0.75262549954183366
40
0.75262549954183366
40
0.75262549954183366
40
0.98111926799513549
40
0.98111926799513549
40
0.98111926799513549
40
0.99676403077857989
40
0.99676403077857989
40
0.99676403077857989
40
0.99676403077857989
10
15.110000000001058
20
-26.470798768904906
30
0
10
15.10517168696687
20
-26.462346231291711
30
0
10
15.100343373932787
20
-26.453893693678658
30
0
10
15.095515060898705
20
-26.44544115606557
30
0
10
13.781036258763528
20
-24.144289296562569
30
0
10
12.37856869581524
20
-21.843767381114638
30
0
10
11.006305080743921
20
-19.449611944798448
30
0
10
9.861217747503801
20
-17.451805522020756
30
0
10
8.7718916513176026
20
-15.344409889813981
30
0
10
7.9473348850800818
20
-13.035132599351513
30
0
10
7.044996923494331
20
-10.508019065955345
30
0
10
6.4590658975056314
20
-7.7784188235804308
30
0
10
6.076879280992884
20
-5.2773341677435681
30
0
10
5.6148928431872136
20
-2.2540279061493962
30
0
10
5.4395171988563362
20
0.44567675668616857
30
0
10
5.4061875881566124
20
3.1439341459428327
30
0
10
5.370881749401164
20
6.0021805612424295
30
0
10
5.4441368804432955
20
8.7999245037678264
30
0
10
5.4585270193234336
20
11.404228575049196
30
0
10
5.4595122991878497
20
11.582542932096889
30
0
10
5.4603761855271671
20
11.760069120805454
30
0
10
5.4611183623844894
20
11.936807232568807
30
0
0
LINE
5
10B
100
AcDbEntity
8
PERIMETER
100
AcDbLine
10
5.4611183623844894
20
11.936807232568807
30
0
11
8.6006006843061655
21
11.936807232568842
31
0
0
LINE
5
10C
100
AcDbEntity
8
PERIMETER
100
AcDbLine
10
8.6006006843061655
20
11.936807232568842
30
0
11
8.6006006843061655
21
16.139167037517801
31
0
0
LINE
5
10D
100
AcDbEntity
8
PERIMETER
100
AcDbLine
10
8.6006006843061655
20
16.139167037517801
30
0
11
3.8997341286871645
21
16.139167037517801
31
0
0
SPLINE
5
10E
100
AcDbEntity
8
PERIMETER
100
AcDbSpline
70
0
71
3
72
17
73
13
74
0
42
0.000000001
43
0.0000000001
44
0.0000000001
40
0.025893977405714363
40
0.025893977405714363
40
0.025893977405714363
40
0.025893977405714363
40
0.37336931982561816
40
0.37336931982561816
40
0.37336931982561816
40
0.77077097672404693
40
0.77077097672404693
40
0.77077097672404693
40
1
40
1
40
1
40
1.0103589877794374
40
1.0103589877794374
40
1.0103589877794374
40
1.0103589877794374
10
3.8997341286871645
20
16.139167037517819
30
0
10
5.5249351887663067
20
17.092002961384747
30
0
10
6.6990611109043741
20
18.411951213904008
30
0
10
7.369523766503896
20
20.042406001157556
30
0
10
8.1363205365083502
20
21.907129493305462
30
0
10
8.257690902005308
20
24.110215247646067
30
0
10
7.9754181026596882
20
26.14625419199454
30
0
10
7.8125976489243598
20
27.320681148860739
30
0
10
7.5161662535309759
20
28.453560483829374
30
0
10
7.1028036155958318
20
29.539142522596329
30
0
10
7.0842536377234566
20
29.587858881913078
30
0
10
7.0657036598510814
20
29.636575241229863
30
0
10
7.0471536819787417
20
29.685291600546631
30
0
0
LINE
5
10F
100
AcDbEntity
8
PERIMETER
100
AcDbLine
10
7.0471536819787417
20
29.685291600546631
30
0
11
0.2684766990177323
21
23.874997043722868
31
0
0
LINE
5
110
100
AcDbEntity
8
PERIMETER
100
AcDbLine
10
0.2684766990177323
20
23.874997043722868
30
0
11
4.1290745897588721
21
33.526491770575717
31
0
0
LINE
5
111
100
AcDbEntity
8
PERIMETER
100
AcDbLine
10
4.1290745897588721
20
33.526491770575717
30
0
11
0.0058920620803704082
21
37.649674298254197
31
0
0
SPLINE
5
112
100
AcDbEntity
8
PERIMETER
100
AcDbSpline
70
0
71
3
72
26
73
22
74
0
42
0.000000001
43
0.0000000001
44
0.0000000001
40
-0.0030531496951788726
40
-0.0030531496951788726
40
-0.0030531496951788726
40
-0.0030531496951788726
40
0
40
0
40
0
40
0.19460644215855788
40
0.19460644215855788
40
0.19460644215855788
40
0.35350991639024976
40
0.35350991639024976
40
0.35350991639024976
40
0.53561643938095471
40
0.53561643938095471
40
0.53561643938095471
40
0.69360328890809519
40
0.69360328890809519
40
0.69360328890809519
40
0.87069172005451612
40
0.87069172005451612
40
0.87069172005451612
40
0.98421911896581893
40
0.98421911896581893
40
0.98421911896581893
40
0.98421911896581893
10
0.0058920620802638268
20
37.649674298254268
30
0
10
-0.019880994690666398
20
37.627666491852025
30
0
10
-0.045654051461596623
20
37.605658685449797
30
0
10
-0.071427108232526848
20
37.583650879047568
30
0
10
-1.7193976970731129
20
36.176436438086661
30
0
10
-3.2688889615607764
20
34.598051373730257
30
0
10
-4.5912874062514319
20
32.903553661605528
30
0
10
-5.6710754381847295
20
31.51993259260264
30
0
10
-6.5576193809531702
20
30.077948231065381
30
0
10
-7.0517255310517868
20
28.68681223173267
30
0
10
-7.6179809475418381
20
27.092542873743053
30
0
10
-7.7010455221892471
20
25.53890492646568
30
0
10
-7.6962669458297128
20
23.964943411708184
30
0
10
-7.6921212831051378
20
22.599450199769837
30
0
10
-7.5715751217636651
20
21.274368952768157
30
0
10
-7.2264763089900086
20
20.197199675375526
30
0
10
-6.8396529276295226
20
18.989794008489209
30
0
10
-6.2371134521819727
20
18.025621344221463
30
0
10
-5.5941325779201279
20
17.148440892689809
30
0
10
-5.1819320421081017
20
16.586100290350334
30
0
10
-4.7408824669237504
20
16.072785656605575
30
0
10
-4.2723827952471183
20
15.609998740851907
30
0
0
LINE
5
113
100
AcDbEntity
8
PERIMETER
100
AcDbLine
10
-4.2723827952471183
20
15.609998740851889
30
0
11
-8.6732695392400316
21
15.609998740851871
31
0
0
LINE
5
114
100
AcDbEntity
8
PERIMETER
100
AcDbLine
10
-8.6732695392400316
20
15.609998740851871
30
0
11
-8.6732695392400316
21
11.936807232568807
31
0
0
ENDSEC
0
SECTION
2
OBJECTS
0
DICTIONARY
5
C
100
AcDbDictionary
3
ACAD_GROUP
350
D
3
ACAD_MLINESTYLE
350
17
0
DICTIONARY
5
D
100
AcDbDictionary
0
DICTIONARY
5
1A
330
C
100
AcDbDictionary
0
DICTIONARY
5
17
100
AcDbDictionary
0
ENDSEC
0
EOF
