0
SECTION
2
HEADER
9
$INSUNITS
70
4
9
$ACADVER
1
AC1014
9
$HANDSEED
5
FFFF
0
ENDSEC
0
SECTION
2
TABLES
0
TABLE
2
VPORT
5
8
100
AcDbSymbolTable
0
ENDTAB
0
TABLE
2
LTYPE
5
5
100
AcDbSymbolTable
70
2
0
LTYPE
5
14
100
AcDbSymbolTableRecord
100
AcDbLinetypeTableRecord
2
BYBLOCK
70
0
0
LTYPE
5
15
100
AcDbSymbolTableRecord
100
AcDbLinetypeTableRecord
2
BYLAYER
70
0
0
ENDTAB
0
TABLE
2
LAYER
5
2
100
AcDbSymbolTable
70
3
0
LAYER
5
50
100
AcDbSymbolTableRecord
100
AcDbLayerTableRecord
2
0
70
0
6
CONTINUOUS
0
LAYER
5
51
100
AcDbSymbolTableRecord
100
AcDbLayerTableRecord
2
CUTOUTS
70
0
62
1
6
CONTINUOUS
0
LAYER
5
52
100
AcDbSymbolTableRecord
100
AcDbLayerTableRecord
2
PERIMETER
70
0
62
5
6
CONTINUOUS
0
ENDTAB
0
TABLE
2
STYLE
5
3
100
AcDbSymbolTable
70
1
0
STYLE
5
11
100
AcDbSymbolTableRecord
100
AcDbTextStyleTableRecord
2
STANDARD
70
0
0
ENDTAB
0
TABLE
2
VIEW
5
6
100
AcDbSymbolTable
0
ENDTAB
0
TABLE
2
UCS
5
7
100
AcDbSymbolTable
0
ENDTAB
0
TABLE
2
APPID
5
9
100
AcDbSymbolTable
70
1
0
APPID
5
12
100
AcDbSymbolTableRecord
100
AcDbRegAppTableRecord
2
ACAD
70
0
0
ENDTAB
0
TABLE
2
DIMSTYLE
5
A
100
AcDbSymbolTable
0
ENDTAB
0
TABLE
2
BLOCK_RECORD
5
1
100
AcDbSymbolTable
70
2
0
BLOCK_RECORD
5
1F
100
AcDbSymbolTableRecord
100
AcDbBlockTableRecord
2
*MODEL_SPACE
0
BLOCK_RECORD
5
1B
100
AcDbSymbolTableRecord
100
AcDbBlockTableRecord
2
*PAPER_SPACE
0
ENDTAB
0
ENDSEC
0
SECTION
2
BLOCKS
0
BLOCK
5
20
100
AcDbEntity
100
AcDbBlockBegin
2
*MODEL_SPACE
0
ENDBLK
5
21
100
AcDbEntity
100
AcDbBlockEnd
0
BLOCK
5
1C
100
AcDbEntity
100
AcDbBlockBegin
2
*PAPER_SPACE
0
ENDBLK
5
1D
100
AcDbEntity
100
AcDbBlockEnd
0
ENDSEC
0
SECTION
2
ENTITIES
0
LINE
5
100
100
AcDbEntity
8
PERIMETER
100
AcDbLine
10
-14.687580759449119
20
0.079284877497620698
30
0
11
-14.687580759449261
21
-10.109998635774637
31
0
0
LINE
5
101
100
AcDbEntity
8
PERIMETER
100
AcDbLine
10
-14.687580759449261
20
-10.109998635774637
30
0
11
-4.5775807594492335
21
-10.109998635774637
31
0
0
LINE
5
102
100
AcDbEntity
8
PERIMETER
100
AcDbLine
10
-4.5775807594492335
20
-10.109998635774637
30
0
11
-6.5565117779442517e-08
21
-10.110001364225347
31
0
0
LINE
5
103
100
AcDbEntity
8
PERIMETER
100
AcDbLine
10
-6.5565117779442517e-08
20
-10.110001364225347
30
0
11
4.5775808250143513
21
-10.109998635774602
31
0
0
LINE
5
104
100
AcDbEntity
8
PERIMETER
100
AcDbLine
10
4.5775808250143513
20
-10.109998635774602
30
0
11
14.68758075944919
21
-10.109998635774637
31
0
0
LINE
5
105
100
AcDbEntity
8
PERIMETER
100
AcDbLine
10
14.68758075944919
20
-10.109998635774637
30
0
11
14.68758075944919
21
0.079284877497549644
31
0
0
SPLINE
5
106
100
AcDbEntity
8
PERIMETER
100
AcDbSpline
70
0
71
3
72
32
73
28
74
0
42
0.000000001
43
0.0000000001
44
0.0000000001
40
-1.3846981995658108
40
-1.3846981995658108
40
-1.3846981995658108
40
-1.3846981995658108
40
-1.3818111717839683
40
-1.3818111717839683
40
-1.3818111717839683
40
-1.2442978430689342
40
-1.2442978430689342
40
-1.2442978430689342
40
-1.0232694096535737
40
-1.0232694096535737
40
-1.0232694096535737
40
-0.60720292518971908
40
-0.60720292518971908
40
-0.60720292518971908
40
-0.30360146259485954
40
-0.30360146259485954
40
-0.30360146259485954
40
-0.15180073129742977
40
-0.15180073129742977
40
-0.15180073129742977
40
-0.026918748239012621
40
-0.026918748239012621
40
-0.026918748239012621
40
0
40
0
40
0
40
0.0023986244213862898
40
0.0023986244213862898
40
0.0023986244213862898
40
0.0023986244213862898
10
14.687580759449261
20
0.07928487749747859
30
0
10
14.662509111258544
20
0.087642093872375426
30
0
10
14.637437463067897
20
0.095999310247236735
30
0
10
14.612365814877322
20
0.10435652662213357
30
0
10
13.41943606751272
20
0.50199979055705057
30
0
10
12.734842794297236
20
0.75218167447250295
30
0
10
12.184437598379247
20
0.96698164339692028
30
0
10
11.299758277951071
20
1.3122347259356815
30
0
10
10.813233714683506
20
1.550554292394537
30
0
10
10.416905241454657
20
1.7796404905217145
30
0
10
9.6708519305695972
20
2.2108750046570691
30
0
10
9.3010261051524168
20
2.5771352635523215
30
0
10
8.93653217203493
20
3.1321297014511629
30
0
10
8.6705629211254376
20
3.5371061400009296
30
0
10
8.4325796117591523
20
4.0178427428485008
30
0
10
8.1307341659632471
20
4.8688755457886757
30
0
10
7.97981144306533
20
5.2943919472587808
30
0
10
7.8135110159598042
20
5.8117568571411127
30
0
10
7.5962431035090816
20
6.569513282906243
30
0
10
7.4175032019953591
20
7.1928971382804008
30
0
10
7.2080152745393633
20
7.9627297958139209
30
0
10
6.8999496256813586
20
9.1718534081140746
30
0
10
6.8335449975708684
20
9.4324842318104629
30
0
10
6.7621907574392282
20
9.715137278510575
30
0
10
6.6843050345399035
20
10.026680274560711
30
0
10
6.6773616127291291
20
10.054453971115578
30
0
10
6.6704181909184257
20
10.08222766767048
30
0
10
6.6634747691077223
20
10.110001364225383
30
0
0
LINE
5
107
100
AcDbEntity
8
PERIMETER
100
AcDbLine
10
6.6634747691077223
20
10.110001364225347
30
0
11
4.4675807594492767
21
10.110001364225347
31
0
0
LINE
5
108
100
AcDbEntity
8
PERIMETER
100
AcDbLine
10
4.4675807594492767
20
10.110001364225347
30
0
11
4.4675807594492767
21
0.11000136422534723
31
0
0
LINE
5
109
100
AcDbEntity
8
PERIMETER
100
AcDbLine
10
4.4675807594492767
20
0.11000136422534723
30
0
11
-4.4675807594492767
21
0.11000136422534723
31
0
0
LINE
5
10A
100
AcDbEntity
8
PERIMETER
100
AcDbLine
10
-4.4675807594492767
20
0.11000136422534723
30
0
11
-4.4675807594492767
21
10.110001364225347
31
0
0
LINE
5
10B
100
AcDbEntity
8
PERIMETER
100
AcDbLine
10
-4.4675807594492767
20
10.110001364225347
30
0
11
-6.6634747691076512
21
10.110001364225347
31
0
0
SPLINE
5
10C
100
AcDbEntity
8
PERIMETER
100
AcDbSpline
70
0
71
3
72
32
73
28
74
0
42
0.000000001
43
0.0000000001
44
0.0000000001
40
-0.0023986244213813693
40
-0.0023986244213813693
40
-0.0023986244213813693
40
-0.0023986244213813693
40
0
40
0
40
0
40
0.12083337795065895
40
0.12083337795065895
40
0.12083337795065895
40
0.3141548441399214
40
0.3141548441399214
40
0.3141548441399214
40
0.64410805080813194
40
0.64410805080813194
40
0.64410805080813194
40
1.0129596112960502
40
1.0129596112960502
40
1.0129596112960502
40
1.1973853915400092
40
1.1973853915400092
40
1.1973853915400092
40
1.3369766125470643
40
1.3369766125470643
40
1.3369766125470643
40
1.3818111717839683
40
1.3818111717839683
40
1.3818111717839683
40
1.3846981995657981
40
1.3846981995657981
40
1.3846981995657981
40
1.3846981995657981
10
-6.6634747691077223
20
10.110001364225241
30
0
10
-6.6704181909183546
20
10.082227667670374
30
0
10
-6.6773616127291291
20
10.054453971115542
30
0
10
-6.6843050345399035
20
10.026680274560711
30
0
10
-7.0339199166470223
20
8.6282202772622441
30
0
10
-7.2627986378388698
20
7.7644916073357706
30
0
10
-7.4558531592763444
20
7.067864126117982
30
0
10
-7.7647213194796194
20
5.9533289840834058
30
0
10
-7.9728554147420283
20
5.3055047839294289
30
0
10
-8.1619535534876064
20
4.7816168019645033
30
0
10
-8.4846985568438527
20
3.8874661264516419
30
0
10
-8.738222692466735
20
3.4030554166037064
30
0
10
-9.0347004579984258
20
2.9889281902240583
30
0
10
-9.3661301403178499
20
2.5259792913995227
30
0
10
-9.719822703487182
20
2.1910655895873887
30
0
10
-10.362247312250972
20
1.8115771938087022
30
0
10
-10.683459616632831
20
1.6218329959193412
30
0
10
-11.074402247806532
20
1.4239461096838824
30
0
10
-11.675993288769817
20
1.1721380486036992
30
0
10
-12.131335420677232
20
0.98154541746989565
30
0
10
-12.694323864289316
20
0.76399832366814024
30
0
10
-13.602187617534867
20
0.4479313208675606
30
0
10
-13.893779530910777
20
0.3464154471782166
30
0
10
-14.223425485067409
20
0.23400330805515068
30
0
10
-14.612365814877322
20
0.10435652662213357
30
0
10
-14.637437463067897
20
0.09599931024730779
30
0
10
-14.662509111258473
20
0.08764209387244648
30
0
10
-14.687580759449048
20
0.079284877497620698
30
0
0
ENDSEC
0
SECTION
2
OBJECTS
0
DICTIONARY
5
C
100
AcDbDictionary
3
ACAD_GROUP
350
D
3
ACAD_MLINESTYLE
350
17
0
DICTIONARY
5
D
100
AcDbDictionary
0
DICTIONARY
5
1A
330
C
100
AcDbDictionary
0
DICTIONARY
5
17
100
AcDbDictionary
0
ENDSEC
0
EOF
