0
SECTION
2
HEADER
9
$INSUNITS
70
4
9
$ACADVER
1
AC1014
9
$HANDSEED
5
FFFF
0
ENDSEC
0
SECTION
2
TABLES
0
TABLE
2
VPORT
5
8
100
AcDbSymbolTable
0
ENDTAB
0
TABLE
2
LTYPE
5
5
100
AcDbSymbolTable
70
2
0
LTYPE
5
14
100
AcDbSymbolTableRecord
100
AcDbLinetypeTableRecord
2
BYBLOCK
70
0
0
LTYPE
5
15
100
AcDbSymbolTableRecord
100
AcDbLinetypeTableRecord
2
BYLAYER
70
0
0
ENDTAB
0
TABLE
2
LAYER
5
2
100
AcDbSymbolTable
70
3
0
LAYER
5
50
100
AcDbSymbolTableRecord
100
AcDbLayerTableRecord
2
0
70
0
6
CONTINUOUS
0
LAYER
5
51
100
AcDbSymbolTableRecord
100
AcDbLayerTableRecord
2
CUTOUTS
70
0
62
1
6
CONTINUOUS
0
LAYER
5
52
100
AcDbSymbolTableRecord
100
AcDbLayerTableRecord
2
PERIMETER
70
0
62
5
6
CONTINUOUS
0
ENDTAB
0
TABLE
2
STYLE
5
3
100
AcDbSymbolTable
70
1
0
STYLE
5
11
100
AcDbSymbolTableRecord
100
AcDbTextStyleTableRecord
2
STANDARD
70
0
0
ENDTAB
0
TABLE
2
VIEW
5
6
100
AcDbSymbolTable
0
ENDTAB
0
TABLE
2
UCS
5
7
100
AcDbSymbolTable
0
ENDTAB
0
TABLE
2
APPID
5
9
100
AcDbSymbolTable
70
1
0
APPID
5
12
100
AcDbSymbolTableRecord
100
AcDbRegAppTableRecord
2
ACAD
70
0
0
ENDTAB
0
TABLE
2
DIMSTYLE
5
A
100
AcDbSymbolTable
0
ENDTAB
0
TABLE
2
BLOCK_RECORD
5
1
100
AcDbSymbolTable
70
2
0
BLOCK_RECORD
5
1F
100
AcDbSymbolTableRecord
100
AcDbBlockTableRecord
2
*MODEL_SPACE
0
BLOCK_RECORD
5
1B
100
AcDbSymbolTableRecord
100
AcDbBlockTableRecord
2
*PAPER_SPACE
0
ENDTAB
0
ENDSEC
0
SECTION
2
BLOCKS
0
BLOCK
5
20
100
AcDbEntity
100
AcDbBlockBegin
2
*MODEL_SPACE
0
ENDBLK
5
21
100
AcDbEntity
100
AcDbBlockEnd
0
BLOCK
5
1C
100
AcDbEntity
100
AcDbBlockBegin
2
*PAPER_SPACE
0
ENDBLK
5
1D
100
AcDbEntity
100
AcDbBlockEnd
0
ENDSEC
0
SECTION
2
ENTITIES
0
SPLINE
5
100
100
AcDbEntity
8
PERIMETER
100
AcDbSpline
70
0
71
3
72
23
73
19
74
0
42
0.000000001
43
0.0000000001
44
0.0000000001
40
-0.99594821237259046
40
-0.99594821237259046
40
-0.99594821237259046
40
-0.99594821237259046
40
-0.83120519841884399
40
-0.83120519841884399
40
-0.83120519841884399
40
-0.62340389881413305
40
-0.62340389881413305
40
-0.62340389881413305
40
-0.4456606683583284
40
-0.4456606683583284
40
-0.4456606683583284
40
-0.19561548263447232
40
-0.19561548263447232
40
-0.19561548263447232
40
0
40
0
40
0
40
0.00069379135413048527
40
0.00069379135413048527
40
0.00069379135413048527
40
0.00069379135413048527
10
-6.0617508918649321
20
14.873951949250479
30
0
10
-5.6360837084680071
20
14.155698055084827
30
0
10
-5.2392747265875528
20
12.623593049937956
30
0
10
-4.9512320166622459
20
10.444369891237848
30
0
10
-4.5879046255478073
20
7.695571058203825
30
0
10
-4.4306674665165957
20
3.9771160986441245
30
0
10
-4.7156122062208539
20
0.46243802837359738
30
0
10
-4.959340222517028
20
-2.5438484357168889
30
0
10
-5.5042256239960352
20
-5.3795544298238696
30
0
10
-6.206048608048178
20
-7.8737586077515331
30
0
10
-7.1933574239314879
20
-11.38254904271669
30
0
10
-8.4345742848210392
20
-14.259510903478017
30
0
10
-10.146091776400183
20
-17.323280145944615
30
0
10
-11.485047050357551
20
-19.720129728594173
30
0
10
-13.129149522406749
20
-22.242180041866675
30
0
10
-15.089119355929483
20
-24.951572996643065
30
0
10
-15.096077707974587
20
-24.961191976325949
30
0
10
-15.10303606001969
20
-24.970810956008833
30
0
10
-15.109994412064793
20
-24.980429935691788
30
0
0
LINE
5
101
100
AcDbEntity
8
PERIMETER
100
AcDbLine
10
-15.109994412064793
20
-24.980429935691788
30
0
11
-15.10999441206458
21
-35.126045815575395
31
0
0
LINE
5
102
100
AcDbEntity
8
PERIMETER
100
AcDbLine
10
-15.10999441206458
20
-35.126045815575395
30
0
11
-4.8899944120645245
21
-35.126045815575395
31
0
0
LINE
5
103
100
AcDbEntity
8
PERIMETER
100
AcDbLine
10
-4.8899944120645245
20
-35.126045815575395
30
0
11
-4.8899944120645245
21
-25.126045815575395
31
0
0
LINE
5
104
100
AcDbEntity
8
PERIMETER
100
AcDbLine
10
-4.8899944120645245
20
-25.126045815575395
30
0
11
4.8899944120645245
21
-25.126045815575395
31
0
0
LINE
5
105
100
AcDbEntity
8
PERIMETER
100
AcDbLine
10
4.8899944120645245
20
-25.126045815575395
30
0
11
4.8899944120645245
21
-35.126045815575395
31
0
0
LINE
5
106
100
AcDbEntity
8
PERIMETER
100
AcDbLine
10
4.8899944120645245
20
-35.126045815575395
30
0
11
15.10999441206458
21
-35.126045815575395
31
0
0
LINE
5
107
100
AcDbEntity
8
PERIMETER
100
AcDbLine
10
15.10999441206458
20
-35.126045815575395
30
0
11
15.109994412064651
21
-24.980429935691646
31
0
0
SPLINE
5
108
100
AcDbEntity
8
PERIMETER
100
AcDbSpline
70
0
71
3
72
26
73
22
74
0
42
0.000000001
43
0.0000000001
44
0.0000000001
40
-0.00069379135412816128
40
-0.00069379135412816128
40
-0.00069379135412816128
40
-0.00069379135412816128
40
0
40
0
40
0
40
0.21334921460091444
40
0.21334921460091444
40
0.21334921460091444
40
0.41001191095068584
40
0.41001191095068584
40
0.41001191095068584
40
0.57958544446097515
40
0.57958544446097515
40
0.57958544446097515
40
0.74983511800439506
40
0.74983511800439506
40
0.74983511800439506
40
0.91006991664048198
40
0.91006991664048198
40
0.91006991664048198
40
0.99594821237257547
40
0.99594821237257547
40
0.99594821237257547
40
0.99594821237257547
10
15.109994412064793
20
-24.980429935691788
30
0
10
15.103036060019619
20
-24.970810956008798
30
0
10
15.096077707974587
20
-24.961191976325949
30
0
10
15.089119355929554
20
-24.951572996643101
30
0
10
12.951466349163496
20
-21.99655710954719
30
0
10
11.191730002277538
20
-19.270137916960302
30
0
10
9.7891776637380445
20
-16.67372018474012
30
0
10
8.4963220739726353
20
-14.280374078339264
30
0
10
7.4908531037800685
20
-11.976092601919426
30
0
10
6.6469025149673655
20
-9.3401901153163891
30
0
10
5.9192012980648911
20
-7.067368136679093
30
0
10
5.3129529805550391
20
-4.5194917828868597
30
0
10
4.9479322245067436
20
-1.7325371585640781
30
0
10
4.5814560223108458
20
1.0655298814347702
30
0
10
4.4889784304248082
20
4.1080859635308187
30
0
10
4.6283656269112328
20
6.8381740162903348
30
0
10
4.7595534224387848
20
9.4076656357919752
30
0
10
5.0686633073395626
20
11.638530203226676
30
0
10
5.4316422948421206
20
13.117970295994024
30
0
10
5.6261819148161862
20
13.910880418427158
30
0
10
5.8401144315676845
20
14.499971391417219
30
0
10
6.061750891864861
20
14.873951949250408
30
0
0
LINE
5
109
100
AcDbEntity
8
PERIMETER
100
AcDbLine
10
6.061750891864861
20
14.873951949250408
30
0
11
8.610000126659898
21
14.873951949250426
31
0
0
LINE
5
10A
100
AcDbEntity
8
PERIMETER
100
AcDbLine
10
8.610000126659898
20
14.873951949250426
30
0
11
8.610000126659898
21
19.093952008855126
31
0
0
LINE
5
10B
100
AcDbEntity
8
PERIMETER
100
AcDbLine
10
8.610000126659898
20
19.093952008855126
30
0
11
4.6542975474434201
21
19.093952008855126
31
0
0
SPLINE
5
10C
100
AcDbEntity
8
PERIMETER
100
AcDbSpline
70
0
71
3
72
17
73
13
74
0
42
0.000000001
43
0.0000000001
44
0.0000000001
40
0.013247798168317127
40
0.013247798168317127
40
0.013247798168317127
40
0.013247798168317127
40
0.4350170169066509
40
0.4350170169066509
40
0.4350170169066509
40
0.83932501605173759
40
0.83932501605173759
40
0.83932501605173759
40
1
40
1
40
1
40
1.0081055813119801
40
1.0081055813119801
40
1.0081055813119801
40
1.0081055813119801
10
4.6542975474434201
20
19.093952008855144
30
0
10
5.1849835205946704
20
20.639634667015123
30
0
10
5.5819772153060399
20
22.089040931626602
30
0
10
5.9546593798364711
20
23.477781665674957
30
0
10
6.3119125257846775
20
24.809028619148599
30
0
10
6.7156029455843225
20
26.116878095602747
30
0
10
7.3753739492924097
20
27.520855542295397
30
0
10
7.6375718173892437
20
28.078806545461461
30
0
10
7.934130869739775
20
28.648934955331065
30
0
10
8.2641222580316054
20
29.230958902997237
30
0
10
8.2808328764264161
20
29.260432339066025
30
0
10
8.2975434948211557
20
29.289905775134812
30
0
10
8.3142541132160375
20
29.319379211203618
30
0
0
SPLINE
5
10D
100
AcDbEntity
8
PERIMETER
100
AcDbSpline
70
0
71
3
72
11
73
7
74
0
42
0.000000001
43
0.0000000001
44
0.0000000001
40
-0.024545696013143742
40
-0.024545696013143742
40
-0.024545696013143742
40
-0.024545696013143742
40
0
40
0
40
0
40
0.99445190204713907
40
0.99445190204713907
40
0.99445190204713907
40
0.99445190204713907
10
8.3142541132159664
20
29.319379211203671
30
0
10
8.286190019119033
20
29.338361698484405
30
0
10
8.2581259250222416
20
29.357344185765086
30
0
10
8.2300618309254503
20
29.376326673045767
30
0
10
7.087755572839427
20
30.148979940953193
30
0
10
5.799431567181017
20
30.853205371748267
30
0
10
4.3739451790282402
20
31.488838315771712
30
0
0
SPLINE
5
10E
100
AcDbEntity
8
PERIMETER
100
AcDbSpline
70
0
71
3
72
14
73
10
74
0
42
0.000000001
43
0.0000000001
44
0.0000000001
40
0.0052239612446321262
40
0.0052239612446321262
40
0.0052239612446321262
40
0.0052239612446321262
40
0.43919208312192504
40
0.43919208312192504
40
0.43919208312192504
40
0.86196482820414766
40
0.86196482820414766
40
0.86196482820414766
40
0.99864260884988898
40
0.99864260884988898
40
0.99864260884988898
40
0.99864260884988898
10
4.3739451790276718
20
31.48883831577125
30
0
10
3.9156681271873595
20
32.048754794586131
30
0
10
3.4082973499729974
20
32.683416796737518
30
0
10
2.8183696170427197
20
33.38176018804127
30
0
10
2.243660659223039
20
34.062087930259622
30
0
10
1.5770567999301477
20
34.798948052549044
30
0
10
0.79056658413243497
20
35.034038732430076
30
0
10
0.53630294380738519
20
35.11004096471774
30
0
10
0.2717594835954884
20
35.138281254251652
30
0
10
2.4868995751603507e-12
20
35.119142276294198
30
0
0
SPLINE
5
10F
100
AcDbEntity
8
PERIMETER
100
AcDbSpline
70
0
71
3
72
14
73
10
74
0
42
0.000000001
43
0.0000000001
44
0.0000000001
40
-0.99864260885070144
40
-0.99864260885070144
40
-0.99864260885070144
40
-0.99864260885070144
40
-0.65792125186699457
40
-0.65792125186699457
40
-0.65792125186699457
40
-0.28764029614630798
40
-0.28764029614630798
40
-0.28764029614630798
40
-0.0052239612449353004
40
-0.0052239612449353004
40
-0.0052239612449353004
40
-0.0052239612449353004
10
2.4868995751603507e-12
20
35.1191422762939
30
0
10
-0.6774135022853045
20
35.166849910696065
30
0
10
-1.3059505936582383
20
34.887683807360602
30
0
10
-1.8512225245442693
20
34.409055736851627
30
0
10
-2.4438000297629259
20
33.888903842201557
30
0
10
-2.949801536306822
20
33.228978218537861
30
0
10
-3.4067485556023769
20
32.671481428317634
30
0
10
-3.7552658110534054
20
32.246274034362315
30
0
10
-4.0757404713040302
20
31.853180648089587
30
0
10
-4.3739451790268902
20
31.488838315772227
30
0
0
SPLINE
5
110
100
AcDbEntity
8
PERIMETER
100
AcDbSpline
70
0
71
3
72
11
73
7
74
0
42
0.000000001
43
0.0000000001
44
0.0000000001
40
-0.99445190204759804
40
-0.99445190204759804
40
-0.99445190204759804
40
-0.99445190204759804
40
0
40
0
40
0
40
0.024545696013179897
40
0.024545696013179897
40
0.024545696013179897
40
0.024545696013179897
10
-4.3739451790267481
20
31.488838315772529
30
0
10
-5.7994315671791696
20
30.853205371746331
30
0
10
-7.0877555728389297
20
30.148979940953549
30
0
10
-8.2300618309254503
20
29.376326673045785
30
0
10
-8.2581259250223127
20
29.357344185765069
30
0
10
-8.2861900191191751
20
29.33836169848437
30
0
10
-8.3142541132160375
20
29.319379211203636
30
0
0
SPLINE
5
111
100
AcDbEntity
8
PERIMETER
100
AcDbSpline
70
0
71
3
72
17
73
13
74
0
42
0.000000001
43
0.0000000001
44
0.0000000001
40
-1.0081055813119697
40
-1.0081055813119697
40
-1.0081055813119697
40
-1.0081055813119697
40
-1
40
-1
40
-1
40
-0.57056068380087288
40
-0.57056068380087288
40
-0.57056068380087288
40
-0.15742499149196143
40
-0.15742499149196143
40
-0.15742499149196143
40
-0.013247798168313091
40
-0.013247798168313091
40
-0.013247798168313091
40
-0.013247798168313091
10
-8.3142541132158954
20
29.319379211203547
30
0
10
-8.2975434948211557
20
29.289905775134759
30
0
10
-8.2808328764264161
20
29.260432339066007
30
0
10
-8.2641222580316054
20
29.230958902997255
30
0
10
-7.3821475245829049
20
27.675371592792413
30
0
10
-6.7630172721847259
20
26.219233842789063
30
0
10
-6.3320560687566285
20
24.810816843270338
30
0
10
-5.9174562675265463
20
23.455870264774017
30
0
10
-5.609549216225389
20
22.105601702040527
30
0
10
-5.1612423658028206
20
20.64944561399825
30
0
10
-5.0047910481244884
20
20.141272387323621
30
0
10
-4.8358342233089502
20
19.622698020433624
30
0
10
-4.6542975474434201
20
19.093952008854966
30
0
0
LINE
5
112
100
AcDbEntity
8
PERIMETER
100
AcDbLine
10
-4.6542975474434201
20
19.093952008854966
30
0
11
-8.610000126659898
21
19.093952008855126
31
0
0
LINE
5
113
100
AcDbEntity
8
PERIMETER
100
AcDbLine
10
-8.610000126659898
20
19.093952008855126
30
0
11
-8.610000126659898
21
14.873951949250426
31
0
0
LINE
5
114
100
AcDbEntity
8
PERIMETER
100
AcDbLine
10
-8.610000126659898
20
14.873951949250426
30
0
11
-6.0617508918649321
21
14.873951949250426
31
0
0
ENDSEC
0
SECTION
2
OBJECTS
0
DICTIONARY
5
C
100
AcDbDictionary
3
ACAD_GROUP
350
D
3
ACAD_MLINESTYLE
350
17
0
DICTIONARY
5
D
100
AcDbDictionary
0
DICTIONARY
5
1A
330
C
100
AcDbDictionary
0
DICTIONARY
5
17
100
AcDbDictionary
0
ENDSEC
0
EOF
