0
SECTION
2
HEADER
9
$INSUNITS
70
4
9
$ACADVER
1
AC1014
9
$HANDSEED
5
FFFF
0
ENDSEC
0
SECTION
2
TABLES
0
TABLE
2
VPORT
5
8
100
AcDbSymbolTable
0
ENDTAB
0
TABLE
2
LTYPE
5
5
100
AcDbSymbolTable
70
2
0
LTYPE
5
14
100
AcDbSymbolTableRecord
100
AcDbLinetypeTableRecord
2
BYBLOCK
70
0
0
LTYPE
5
15
100
AcDbSymbolTableRecord
100
AcDbLinetypeTableRecord
2
BYLAYER
70
0
0
ENDTAB
0
TABLE
2
LAYER
5
2
100
AcDbSymbolTable
70
3
0
LAYER
5
50
100
AcDbSymbolTableRecord
100
AcDbLayerTableRecord
2
0
70
0
6
CONTINUOUS
0
LAYER
5
51
100
AcDbSymbolTableRecord
100
AcDbLayerTableRecord
2
CUTOUTS
70
0
62
1
6
CONTINUOUS
0
LAYER
5
52
100
AcDbSymbolTableRecord
100
AcDbLayerTableRecord
2
PERIMETER
70
0
62
5
6
CONTINUOUS
0
ENDTAB
0
TABLE
2
STYLE
5
3
100
AcDbSymbolTable
70
1
0
STYLE
5
11
100
AcDbSymbolTableRecord
100
AcDbTextStyleTableRecord
2
STANDARD
70
0
0
ENDTAB
0
TABLE
2
VIEW
5
6
100
AcDbSymbolTable
0
ENDTAB
0
TABLE
2
UCS
5
7
100
AcDbSymbolTable
0
ENDTAB
0
TABLE
2
APPID
5
9
100
AcDbSymbolTable
70
1
0
APPID
5
12
100
AcDbSymbolTableRecord
100
AcDbRegAppTableRecord
2
ACAD
70
0
0
ENDTAB
0
TABLE
2
DIMSTYLE
5
A
100
AcDbSymbolTable
0
ENDTAB
0
TABLE
2
BLOCK_RECORD
5
1
100
AcDbSymbolTable
70
2
0
BLOCK_RECORD
5
1F
100
AcDbSymbolTableRecord
100
AcDbBlockTableRecord
2
*MODEL_SPACE
0
BLOCK_RECORD
5
1B
100
AcDbSymbolTableRecord
100
AcDbBlockTableRecord
2
*PAPER_SPACE
0
ENDTAB
0
ENDSEC
0
SECTION
2
BLOCKS
0
BLOCK
5
20
100
AcDbEntity
100
AcDbBlockBegin
2
*MODEL_SPACE
0
ENDBLK
5
21
100
AcDbEntity
100
AcDbBlockEnd
0
BLOCK
5
1C
100
AcDbEntity
100
AcDbBlockBegin
2
*PAPER_SPACE
0
ENDBLK
5
1D
100
AcDbEntity
100
AcDbBlockEnd
0
ENDSEC
0
SECTION
2
ENTITIES
0
LINE
5
100
100
AcDbEntity
8
PERIMETER
100
AcDbLine
10
-2.7111115559253207
20
-24.703535466163657
30
0
11
7.0688884440746946
21
-24.703535466163657
31
0
0
LINE
5
101
100
AcDbEntity
8
PERIMETER
100
AcDbLine
10
7.0688884440746946
20
-24.703535466163657
30
0
11
7.0688884440746946
21
-34.703535466163657
31
0
0
LINE
5
102
100
AcDbEntity
8
PERIMETER
100
AcDbLine
10
7.0688884440746946
20
-34.703535466163657
30
0
11
17.288888444074679
21
-34.703535466163657
31
0
0
LINE
5
103
100
AcDbEntity
8
PERIMETER
100
AcDbLine
10
17.288888444074679
20
-34.703535466163657
30
0
11
17.288888444074679
21
-23.536140096125351
31
0
0
SPLINE
5
104
100
AcDbEntity
8
PERIMETER
100
AcDbSpline
70
0
71
3
72
176
73
172
74
0
42
0.000000001
43
0.0000000001
44
0.0000000001
40
-0.00032517100216243274
40
-0.00032517100216243274
40
-0.00032517100216243274
40
-0.00032517100216243274
40
0
40
0
40
0
40
0.031050413367530141
40
0.031050413367530141
40
0.031050413367530141
40
0.057840216133858438
40
0.057840216133858438
40
0.057840216133858438
40
0.077951279282403904
40
0.077951279282403904
40
0.077951279282403904
40
0.10024494985009243
40
0.10024494985009243
40
0.10024494985009243
40
0.12229117960499664
40
0.12229117960499664
40
0.12229117960499664
40
0.14338274951667065
40
0.14338274951667065
40
0.14338274951667065
40
0.16687073703593633
40
0.16687073703593633
40
0.16687073703593633
40
0.18820124822251619
40
0.18820124822251619
40
0.18820124822251619
40
0.21039530861807956
40
0.21039530861807956
40
0.21039530861807956
40
0.22940100832804045
40
0.22940100832804045
40
0.22940100832804045
40
0.24413127124883499
40
0.24413127124883499
40
0.24413127124883499
40
0.26020784374712103
40
0.26020784374712103
40
0.26020784374712103
40
0.28375957326959994
40
0.28375957326959994
40
0.28375957326959994
40
0.30440129346618061
40
0.30440129346618061
40
0.30440129346618061
40
0.32279148847734601
40
0.32279148847734601
40
0.32279148847734601
40
0.33788208482491361
40
0.33788208482491361
40
0.33788208482491361
40
0.35321335145583854
40
0.35321335145583854
40
0.35321335145583854
40
0.36872191685759831
40
0.36872191685759831
40
0.36872191685759831
40
0.38015417867939455
40
0.38015417867939455
40
0.38015417867939455
40
0.39105713598340203
40
0.39105713598340203
40
0.39105713598340203
40
0.3989881800238968
40
0.3989881800238968
40
0.3989881800238968
40
0.41161482358749318
40
0.41161482358749318
40
0.41161482358749318
40
0.42061324016576618
40
0.42061324016576618
40
0.42061324016576618
40
0.42925489573500919
40
0.42925489573500919
40
0.42925489573500919
40
0.44150675468317119
40
0.44150675468317119
40
0.44150675468317119
40
0.45383999122762259
40
0.45383999122762259
40
0.45383999122762259
40
0.47090749150175937
40
0.47090749150175937
40
0.47090749150175937
40
0.48354371748371489
40
0.48354371748371489
40
0.48354371748371489
40
0.4974989259787872
40
0.4974989259787872
40
0.4974989259787872
40
0.50990689167795644
40
0.50990689167795644
40
0.50990689167795644
40
0.52346285431197404
40
0.52346285431197404
40
0.52346285431197404
40
0.54309373163488661
40
0.54309373163488661
40
0.54309373163488661
40
0.56993191272715338
40
0.56993191272715338
40
0.56993191272715338
40
0.5912521212604871
40
0.5912521212604871
40
0.5912521212604871
40
0.61679886368170667
40
0.61679886368170667
40
0.61679886368170667
40
0.6354526417372568
40
0.6354526417372568
40
0.6354526417372568
40
0.65330627942743202
40
0.65330627942743202
40
0.65330627942743202
40
0.67236130543272876
40
0.67236130543272876
40
0.67236130543272876
40
0.69735983624691344
40
0.69735983624691344
40
0.69735983624691344
40
0.71828839736624361
40
0.71828839736624361
40
0.71828839736624361
40
0.73598267394601469
40
0.73598267394601469
40
0.73598267394601469
40
0.75083120869959552
40
0.75083120869959552
40
0.75083120869959552
40
0.76400209665962571
40
0.76400209665962571
40
0.76400209665962571
40
0.77649187464306446
40
0.77649187464306446
40
0.77649187464306446
40
0.79223644522027969
40
0.79223644522027969
40
0.79223644522027969
40
0.81042613816992037
40
0.81042613816992037
40
0.81042613816992037
40
0.8305463910890547
40
0.8305463910890547
40
0.8305463910890547
40
0.85344021957774252
40
0.85344021957774252
40
0.85344021957774252
40
0.88237529518702162
40
0.88237529518702162
40
0.88237529518702162
40
0.90478471808246808
40
0.90478471808246808
40
0.90478471808246808
40
0.92484250374943089
40
0.92484250374943089
40
0.92484250374943089
40
0.94542202736390057
40
0.94542202736390057
40
0.94542202736390057
40
0.96667676789637969
40
0.96667676789637969
40
0.96667676789637969
40
0.99112122012646542
40
0.99112122012646542
40
0.99112122012646542
40
1
40
1
40
1
40
1.00058868227651
40
1.00058868227651
40
1.00058868227651
40
1.00058868227651
10
17.288888444075035
20
-23.536140096125564
30
0
10
17.27319455000714
20
-23.525196467852076
30
0
10
17.257500655939246
20
-23.514252839578624
30
0
10
17.241806761871352
20
-23.503309211305172
30
0
10
15.757262326098491
20
-22.468110274046147
30
0
10
14.507580121664709
20
-21.059372984010949
30
0
10
13.546006256981009
20
-19.410837269781709
30
0
10
12.716375621304188
20
-17.988506877116706
30
0
10
12.080322651985895
20
-16.444406224296628
30
0
10
11.97706708371804
20
-14.935801369663189
30
0
10
11.899553289682778
20
-13.803294058490714
30
0
10
12.178179283227841
20
-12.673058930891656
30
0
10
12.776377077330494
20
-11.439213126509493
30
0
10
13.439495901906788
20
-10.071460875370519
30
0
10
14.43142650928511
20
-8.5596708750931683
30
0
10
15.18537313161481
20
-6.8543661259301913
30
0
10
15.93095158664525
20
-5.1679888114351513
30
0
10
16.416527390207882
20
-3.3003198609970497
30
0
10
16.766156347358496
20
-1.486901210665259
30
0
10
17.10064544934415
20
0.24799163349999986
30
0
10
17.378033617824613
20
1.9011871766163324
30
0
10
17.670566420166018
20
3.416848631087035
30
0
10
17.996336708444467
20
5.1047190681916277
30
0
10
18.270919100396164
20
6.6680722442992746
30
0
10
18.341438442524378
20
8.2250444527571709
30
0
10
18.405480268794179
20
9.6390018249017295
30
0
10
18.351999215344392
20
11.019617116400795
30
0
10
18.291615626534394
20
12.349669232328306
30
0
10
18.228787454943607
20
13.73356747705083
30
0
10
18.130069833922633
20
15.095391160096838
30
0
10
17.613724778728042
20
16.591463338758423
30
0
10
17.171556969375175
20
17.8726123518409
30
0
10
16.393561657869142
20
19.259500982795092
30
0
10
15.638266407011976
20
20.436863496727558
30
0
10
15.052878981253457
20
21.349371830962856
30
0
10
14.526434485994848
20
22.102851729425641
30
0
10
14.129241438324414
20
22.6698292516142
30
0
10
13.695745929043674
20
23.288627116212748
30
0
10
13.371130061872059
20
23.725894539143955
30
0
10
12.8813908316301
20
24.252552787147561
30
0
10
12.163936542885665
20
25.024092405376877
30
0
10
11.108483848657649
20
25.996099354167921
30
0
10
10.259960493155553
20
26.734127007535342
30
0
10
9.5162791568094818
20
27.380965291900363
30
0
10
8.8519071747504086
20
27.883218974018451
30
0
10
8.035083524040445
20
28.342063469811212
30
0
10
7.3073560825660167
20
28.750858845248306
30
0
10
6.5056839290822666
20
29.063093138818523
30
0
10
5.7585311468283962
20
29.43526407039748
30
0
10
5.1454337305089837
20
29.740659488844443
30
0
10
4.5487866845597225
20
30.148757890418221
30
0
10
3.9873961602185304
20
30.762247107313012
30
0
10
3.4170523769434169
20
31.385520471915829
30
0
10
2.9164635680570328
20
32.185472419354433
30
0
10
2.5353368264313048
20
32.817614708927124
30
0
10
2.149802536202472
20
33.457067421939186
30
0
10
1.8651341213515948
20
33.904642491765706
30
0
10
1.2640084703645726
20
34.197941449194964
30
0
10
0.82088393551227767
20
34.414149098743948
30
0
10
0.1828925328200981
20
34.578490811168635
30
0
10
-0.45238772689703666
20
34.659218951811361
30
0
10
-1.0582550220782139
20
34.736209444539696
30
0
10
-1.6135597446168859
20
34.742218254543324
30
0
10
-1.8898698953272941
20
34.492659413458924
30
0
10
-2.0908638012022251
20
34.311124981639423
30
0
10
-2.0754269769132705
20
34.008996604787797
30
0
10
-1.9590555122567821
20
33.685735774818738
30
0
10
-1.7737859566107872
20
33.171087355612983
30
0
10
-1.3668150578950744
20
32.491905891483555
30
0
10
-1.1910057080313763
20
31.933143797339714
30
0
10
-1.0657146312332699
20
31.534940263207289
30
0
10
-1.071026767545078
20
31.229253423508272
30
0
10
-1.1701031891491098
20
31.106374422839824
30
0
10
-1.2652515192011293
20
30.988367216657196
30
0
10
-1.4835794545176384
20
30.965054101049247
30
0
10
-1.8023478000779392
20
31.05898877814063
30
0
10
-2.2542872202098962
20
31.192166316268963
30
0
10
-2.8020611692848973
20
31.537622712648314
30
0
10
-3.2783205054600018
20
31.781283077344522
30
0
10
-3.7577431852674792
20
32.026561849081965
30
0
10
-4.2323984051510166
20
32.142025189436566
30
0
10
-4.7298690580831604
20
31.987282468306208
30
0
10
-5.4182999070896187
20
31.77313986058163
30
0
10
-6.1386027707398583
20
31.150277856560216
30
0
10
-6.3029922562277463
20
30.558622150456483
30
0
10
-6.424700922073221
20
30.120579374082883
30
0
10
-6.1881227409240935
20
29.706352161301144
30
0
10
-5.8460483103084471
20
29.256763776896104
30
0
10
-5.4682677920673584
20
28.760246885674441
30
0
10
-5.0048535644308245
20
28.171744531510345
30
0
10
-4.9339347858195737
20
27.683508486762793
30
0
10
-4.8708789187039869
20
27.249404180942864
30
0
10
-5.1056451762891086
20
26.893888218818809
30
0
10
-5.5500280351481379
20
26.538484283970565
30
0
10
-6.0355256240312372
20
26.150198034830776
30
0
10
-6.6852805883557309
20
25.767446988879605
30
0
10
-7.2178576035203434
20
25.301895266808643
30
0
10
-7.9891015448000147
20
24.627713064468288
30
0
10
-8.5846215360696476
20
23.798989150169128
30
0
10
-9.4046285953935893
20
22.928602725064717
30
0
10
-10.525694026808949
20
21.738661587286909
30
0
10
-12.03942966542666
20
20.461121518174608
30
0
10
-13.269977829251829
20
19.249562099365729
30
0
10
-14.247523340732968
20
18.287101216836952
30
0
10
-15.098996618862621
20
17.393130412089572
30
0
10
-15.931438948669978
20
16.623453265567107
30
0
10
-16.928905260824436
20
15.701194752993644
30
0
10
-17.837773717124712
20
14.953393639521675
30
0
10
-18.17664615817641
20
13.915000709785676
30
0
10
-18.424084802223248
20
13.156784616071171
30
0
10
-18.400659965987387
20
12.204587924954193
30
0
10
-18.269317014683217
20
11.185785713065943
30
0
10
-18.143607924612581
20
10.210684287776388
30
0
10
-17.945306560371819
20
9.2394582321615815
30
0
10
-17.641355783878296
20
8.4886441856020411
30
0
10
-17.316951869621562
20
7.6873071454644482
30
0
10
-16.800181076836473
20
7.1087140700251616
30
0
10
-16.04788668145293
20
6.7253070154565009
30
0
10
-15.060942102153696
20
6.2223104272940688
30
0
10
-13.754425677054734
20
6.0217923375661364
30
0
10
-12.455516923069716
20
6.1863487261134509
30
0
10
-11.36808136742566
20
6.3241139596340723
30
0
10
-10.2881087995085
20
6.7376682195505566
30
0
10
-9.315830916294594
20
7.1047607006297042
30
0
10
-8.4938081465547555
20
7.4151229779756456
30
0
10
-7.7401338920646268
20
7.6648342688718607
30
0
10
-6.8534169041927129
20
7.9504203156728082
30
0
10
-6.1093091724271176
20
8.190076021400241
30
0
10
-5.2404805222184336
20
8.4885000532488597
30
0
10
-4.4428373823970091
20
8.7710788727621036
30
0
10
-3.735315152020604
20
9.0217308080171321
30
0
10
-3.136967291771029
20
9.2330056118034598
30
0
10
-2.7335327342457916
20
9.3122834824469791
30
0
10
-2.3509611058462454
20
9.387461633407046
30
0
10
-2.0909943620165095
20
9.3627526492477742
30
0
10
-1.7188622227038053
20
9.2699977014008006
30
0
10
-1.2497537454171948
20
9.1530711375580154
30
0
10
-0.67704889760218379
20
8.9008877604434389
30
0
10
-0.46552160369920159
20
8.470534470990625
30
0
10
-0.22114424785492304
20
7.9733475736647108
30
0
10
-0.42203701630054269
20
7.2636927288210984
30
0
10
-0.90731821494834719
20
6.5656260212320028
30
0
10
-1.4441046511310063
20
5.7934701222838925
30
0
10
-2.2884532835602656
20
4.9487898480967374
30
0
10
-3.128295261475067
20
3.907295901268597
30
0
10
-4.0839094019760935
20
2.7222320809219624
30
0
10
-5.0259390761890899
20
1.3561560193402045
30
0
10
-5.8188065153436241
20
0.14957085410223669
30
0
10
-6.8208966337092747
20
-1.3754092514508898
30
0
10
-7.6587338745952138
20
-2.6706759643770184
30
0
10
-8.2758646508193223
20
-4.212198360553181
30
0
10
-8.7538155203088763
20
-5.4060652004115539
30
0
10
-9.0515920436027031
20
-6.7840420899194243
30
0
10
-9.0563279232472738
20
-8.20100237771058
30
0
10
-9.0605668212902302
20
-9.4692673340958677
30
0
10
-8.8172182381480013
20
-10.713436817814745
30
0
10
-8.557536346154464
20
-11.760316561927908
30
0
10
-8.2910996757630073
20
-12.834427471935896
30
0
10
-8.082034361930468
20
-13.714110004248354
30
0
10
-8.2274776416467432
20
-14.6116508455043
30
0
10
-8.3776929347931883
20
-15.53864012162073
30
0
10
-8.8679618069697952
20
-16.538486669270078
30
0
10
-9.4800514077061138
20
-17.548733595601078
30
0
10
-10.183997663030553
20
-18.710588885885748
30
0
10
-11.029567033562557
20
-19.798650739137571
30
0
10
-11.899741702085933
20
-20.459135730652882
30
0
10
-12.215808892326976
20
-20.699038870810789
30
0
10
-12.537321960191044
20
-20.888728270855772
30
0
10
-12.864261530534158
20
-21.028152669242637
30
0
10
-12.886544872331243
20
-21.037655469778045
30
0
10
-12.908828214128327
20
-21.047158270313453
30
0
10
-12.931111555925412
20
-21.056661070848897
30
0
0
LINE
5
105
100
AcDbEntity
8
PERIMETER
100
AcDbLine
10
-12.931111555925412
20
-21.056661070848932
30
0
11
-12.931111555925305
21
-34.703535466163657
31
0
0
LINE
5
106
100
AcDbEntity
8
PERIMETER
100
AcDbLine
10
-12.931111555925305
20
-34.703535466163657
30
0
11
-2.7111115559253207
21
-34.703535466163657
31
0
0
LINE
5
107
100
AcDbEntity
8
PERIMETER
100
AcDbLine
10
-2.7111115559253207
20
-34.703535466163657
30
0
11
-2.7111115559253207
21
-24.703535466163657
31
0
0
ENDSEC
0
SECTION
2
OBJECTS
0
DICTIONARY
5
C
100
AcDbDictionary
3
ACAD_GROUP
350
D
3
ACAD_MLINESTYLE
350
17
0
DICTIONARY
5
D
100
AcDbDictionary
0
DICTIONARY
5
1A
330
C
100
AcDbDictionary
0
DICTIONARY
5
17
100
AcDbDictionary
0
ENDSEC
0
EOF
