0
SECTION
2
HEADER
9
$INSUNITS
70
4
9
$ACADVER
1
AC1014
9
$HANDSEED
5
FFFF
0
ENDSEC
0
SECTION
2
TABLES
0
TABLE
2
VPORT
5
8
100
AcDbSymbolTable
0
ENDTAB
0
TABLE
2
LTYPE
5
5
100
AcDbSymbolTable
70
2
0
LTYPE
5
14
100
AcDbSymbolTableRecord
100
AcDbLinetypeTableRecord
2
BYBLOCK
70
0
0
LTYPE
5
15
100
AcDbSymbolTableRecord
100
AcDbLinetypeTableRecord
2
BYLAYER
70
0
0
ENDTAB
0
TABLE
2
LAYER
5
2
100
AcDbSymbolTable
70
3
0
LAYER
5
50
100
AcDbSymbolTableRecord
100
AcDbLayerTableRecord
2
0
70
0
6
CONTINUOUS
0
LAYER
5
51
100
AcDbSymbolTableRecord
100
AcDbLayerTableRecord
2
CUTOUTS
70
0
62
1
6
CONTINUOUS
0
LAYER
5
52
100
AcDbSymbolTableRecord
100
AcDbLayerTableRecord
2
PERIMETER
70
0
62
5
6
CONTINUOUS
0
ENDTAB
0
TABLE
2
STYLE
5
3
100
AcDbSymbolTable
70
1
0
STYLE
5
11
100
AcDbSymbolTableRecord
100
AcDbTextStyleTableRecord
2
STANDARD
70
0
0
ENDTAB
0
TABLE
2
VIEW
5
6
100
AcDbSymbolTable
0
ENDTAB
0
TABLE
2
UCS
5
7
100
AcDbSymbolTable
0
ENDTAB
0
TABLE
2
APPID
5
9
100
AcDbSymbolTable
70
1
0
APPID
5
12
100
AcDbSymbolTableRecord
100
AcDbRegAppTableRecord
2
ACAD
70
0
0
ENDTAB
0
TABLE
2
DIMSTYLE
5
A
100
AcDbSymbolTable
0
ENDTAB
0
TABLE
2
BLOCK_RECORD
5
1
100
AcDbSymbolTable
70
2
0
BLOCK_RECORD
5
1F
100
AcDbSymbolTableRecord
100
AcDbBlockTableRecord
2
*MODEL_SPACE
0
BLOCK_RECORD
5
1B
100
AcDbSymbolTableRecord
100
AcDbBlockTableRecord
2
*PAPER_SPACE
0
ENDTAB
0
ENDSEC
0
SECTION
2
BLOCKS
0
BLOCK
5
20
100
AcDbEntity
100
AcDbBlockBegin
2
*MODEL_SPACE
0
ENDBLK
5
21
100
AcDbEntity
100
AcDbBlockEnd
0
BLOCK
5
1C
100
AcDbEntity
100
AcDbBlockBegin
2
*PAPER_SPACE
0
ENDBLK
5
1D
100
AcDbEntity
100
AcDbBlockEnd
0
ENDSEC
0
SECTION
2
ENTITIES
0
SPLINE
5
100
100
AcDbEntity
8
PERIMETER
100
AcDbSpline
70
0
71
3
72
35
73
31
74
0
42
0.000000001
43
0.0000000001
44
0.0000000001
40
-1.0007306149292112
40
-1.0007306149292112
40
-1.0007306149292112
40
-1.0007306149292112
40
-1
40
-1
40
-1
40
-0.86937107328996077
40
-0.86937107328996077
40
-0.86937107328996077
40
-0.75172173734263215
40
-0.75172173734263215
40
-0.75172173734263215
40
-0.61184887696931933
40
-0.61184887696931933
40
-0.61184887696931933
40
-0.48109797359533724
40
-0.48109797359533724
40
-0.48109797359533724
40
-0.33282401283443797
40
-0.33282401283443797
40
-0.33282401283443797
40
-0.20999316008530491
40
-0.20999316008530491
40
-0.20999316008530491
40
-0.074663506454057699
40
-0.074663506454057699
40
-0.074663506454057699
40
0
40
0
40
0
40
0.0011418801071301371
40
0.0011418801071301371
40
0.0011418801071301371
40
0.0011418801071301371
10
-12.653382340084036
20
23.414552023808781
30
0
10
-12.648277127399581
20
23.405918616758825
30
0
10
-12.643171914714628
20
23.397285209708443
30
0
10
-12.638066702029747
20
23.388651802658096
30
0
10
-11.728252786069575
20
21.850068718783451
30
0
10
-11.076045222430793
20
20.469221898947332
30
0
10
-10.617037552720134
20
19.13248022432402
30
0
10
-10.203637941345676
20
17.928560278616725
30
0
10
-9.9222978068561929
20
16.718732494064117
30
0
10
-9.6046095191334757
20
15.207626543048995
30
0
10
-9.226911088852745
20
13.411078266820322
30
0
10
-8.7946015748774187
20
11.168385677199737
30
0
10
-8.5436239392554825
20
8.8791147114718072
30
0
10
-8.309014076436867
20
6.7391409807718361
30
0
10
-8.2618524357305034
20
4.6237842494736014
30
0
10
-8.3736401075805844
20
2.7123642998400399
30
0
10
-8.5004094104437655
20
0.54477846068966329
30
0
10
-8.7905898894234014
20
-1.373195935413527
30
0
10
-9.2671571579276701
20
-3.4730354875474845
30
0
10
-9.6619477447731583
20
-5.2125525376173343
30
0
10
-10.202661838346074
20
-7.1269806298085925
30
0
10
-10.868633670757291
20
-9.0450499778556548
30
0
10
-11.60237226648654
20
-11.158294775089672
30
0
10
-12.474591323276201
20
-13.193505055930608
30
0
10
-13.427941283697749
20
-14.820402595741378
30
0
10
-13.953919508077632
20
-15.717987653446031
30
0
10
-14.50622912958039
20
-16.502903001649045
30
0
10
-15.083289839103884
20
-17.171817738803625
30
0
10
-15.092193226069313
20
-17.182138328394068
30
0
10
-15.101096613034741
20
-17.19245891798451
30
0
10
-15.110000000000028
20
-17.202779507574952
30
0
0
LINE
5
101
100
AcDbEntity
8
PERIMETER
100
AcDbLine
10
-15.110000000000099
20
-17.202779507574952
30
0
11
-15.110000000000028
21
-30.35366759804198
31
0
0
LINE
5
102
100
AcDbEntity
8
PERIMETER
100
AcDbLine
10
-15.110000000000028
20
-30.35366759804198
30
0
11
-4.8899999999999721
21
-30.35366759804198
31
0
0
LINE
5
103
100
AcDbEntity
8
PERIMETER
100
AcDbLine
10
-4.8899999999999721
20
-30.35366759804198
30
0
11
-4.8899999999999721
21
-20.35366759804198
31
0
0
LINE
5
104
100
AcDbEntity
8
PERIMETER
100
AcDbLine
10
-4.8899999999999721
20
-20.35366759804198
30
0
11
4.8899999999999721
21
-20.35366759804198
31
0
0
LINE
5
105
100
AcDbEntity
8
PERIMETER
100
AcDbLine
10
4.8899999999999721
20
-20.35366759804198
30
0
11
4.8899999999999721
21
-30.35366759804198
31
0
0
LINE
5
106
100
AcDbEntity
8
PERIMETER
100
AcDbLine
10
4.8899999999999721
20
-30.35366759804198
30
0
11
15.110000000000028
21
-30.35366759804198
31
0
0
LINE
5
107
100
AcDbEntity
8
PERIMETER
100
AcDbLine
10
15.110000000000028
20
-30.35366759804198
30
0
11
15.110000000000099
21
-17.202779507574881
31
0
0
SPLINE
5
108
100
AcDbEntity
8
PERIMETER
100
AcDbSpline
70
0
71
3
72
35
73
31
74
0
42
0.000000001
43
0.0000000001
44
0.0000000001
40
-0.0011418801071708391
40
-0.0011418801071708391
40
-0.0011418801071708391
40
-0.0011418801071708391
40
0
40
0
40
0
40
0.15106022566348234
40
0.15106022566348234
40
0.15106022566348234
40
0.28242926946323943
40
0.28242926946323943
40
0.28242926946323943
40
0.41689504344105555
40
0.41689504344105555
40
0.41689504344105555
40
0.54677494039408747
40
0.54677494039408747
40
0.54677494039408747
40
0.69825262624126094
40
0.69825262624126094
40
0.69825262624126094
40
0.80601302212271675
40
0.80601302212271675
40
0.80601302212271675
40
0.93914717597403941
40
0.93914717597403941
40
0.93914717597403941
40
1
40
1
40
1
40
1.0007306149292501
40
1.0007306149292501
40
1.0007306149292501
40
1.0007306149292501
10
15.110000000001023
20
-17.202779507576018
30
0
10
15.10109661303531
20
-17.192458917985256
30
0
10
15.092193226069597
20
-17.182138328394458
30
0
10
15.083289839103884
20
-17.171817738803661
30
0
10
13.915772732794593
20
-15.818460309677569
30
0
10
12.844408804051994
20
-13.958600584220839
30
0
10
11.902338718713708
20
-11.741793878109483
30
0
10
11.083070471498573
20
-9.8139549913896218
30
0
10
10.369697015227644
20
-7.6616062363648396
30
0
10
9.8238017817441659
20
-5.6821240259305128
30
0
10
9.2650382941067022
20
-3.6559799679202243
30
0
10
8.8834002602189344
20
-1.8441568845312162
30
0
10
8.635628366476098
20
-0.0021543625017983459
30
0
10
8.396306589081064
20
1.7770277347051433
30
0
10
8.2713321672136431
20
3.6594604119324714
30
0
10
8.3254123944782066
20
5.7169720822881587
30
0
10
8.3884856480632664
20
8.1166283319519295
30
0
10
8.7481012343327791
20
10.735127873116994
30
0
10
9.1641134146684777
20
12.982661686107093
30
0
10
9.4600622007472168
20
14.581544928151882
30
0
10
9.7473700137704355
20
15.953553565671985
30
0
10
10.040182421793205
20
17.140094531463141
30
0
10
10.401941784872761
20
18.60602388517778
30
0
10
10.826231838063762
20
19.878171949186836
30
0
10
11.524293771606224
20
21.32361166381239
30
0
10
11.843363212258708
20
21.984291782698122
30
0
10
12.214234496417333
20
22.67191066414922
30
0
10
12.638066702029676
20
23.388651802658043
30
0
10
12.643171914714841
20
23.397285209708869
30
0
10
12.648277127400007
20
23.405918616759713
30
0
10
12.653382340085315
20
23.414552023810682
30
0
0
LINE
5
109
100
AcDbEntity
8
PERIMETER
100
AcDbLine
10
12.653382340085315
20
23.414552023810682
30
0
11
12.653382340085102
21
30.353667598042016
31
0
0
LINE
5
10A
100
AcDbEntity
8
PERIMETER
100
AcDbLine
10
12.653382340085102
20
30.353667598042016
30
0
11
7.35727853129994
21
30.353667598042016
31
0
0
LINE
5
10B
100
AcDbEntity
8
PERIMETER
100
AcDbLine
10
7.35727853129994
20
30.353667598042016
30
0
11
7.35727853129994
21
27.3978678131839
31
0
0
LINE
5
10C
100
AcDbEntity
8
PERIMETER
100
AcDbLine
10
7.35727853129994
20
27.3978678131839
30
0
11
3.5782552929624956
21
27.3978678131839
31
0
0
LINE
5
10D
100
AcDbEntity
8
PERIMETER
100
AcDbLine
10
3.5782552929624956
20
27.3978678131839
30
0
11
3.5782552929624956
21
30.353667598042016
31
0
0
LINE
5
10E
100
AcDbEntity
8
PERIMETER
100
AcDbLine
10
3.5782552929624956
20
30.353667598042016
30
0
11
-3.5782552929624956
21
30.353667598042016
31
0
0
LINE
5
10F
100
AcDbEntity
8
PERIMETER
100
AcDbLine
10
-3.5782552929624956
20
30.353667598042016
30
0
11
-3.5782552929624956
21
27.3978678131839
31
0
0
LINE
5
110
100
AcDbEntity
8
PERIMETER
100
AcDbLine
10
-3.5782552929624956
20
27.3978678131839
30
0
11
-7.35727853129994
21
27.3978678131839
31
0
0
LINE
5
111
100
AcDbEntity
8
PERIMETER
100
AcDbLine
10
-7.35727853129994
20
27.3978678131839
30
0
11
-7.35727853129994
21
30.353667598042016
31
0
0
LINE
5
112
100
AcDbEntity
8
PERIMETER
100
AcDbLine
10
-7.35727853129994
20
30.353667598042016
30
0
11
-12.653382340085102
21
30.353667598042016
31
0
0
LINE
5
113
100
AcDbEntity
8
PERIMETER
100
AcDbLine
10
-12.653382340085102
20
30.353667598042016
30
0
11
-12.653382340085315
21
23.414552023810593
31
0
0
ENDSEC
0
SECTION
2
OBJECTS
0
DICTIONARY
5
C
100
AcDbDictionary
3
ACAD_GROUP
350
D
3
ACAD_MLINESTYLE
350
17
0
DICTIONARY
5
D
100
AcDbDictionary
0
DICTIONARY
5
1A
330
C
100
AcDbDictionary
0
DICTIONARY
5
17
100
AcDbDictionary
0
ENDSEC
0
EOF
