0
SECTION
2
HEADER
9
$INSUNITS
70
4
9
$ACADVER
1
AC1014
9
$HANDSEED
5
FFFF
0
ENDSEC
0
SECTION
2
TABLES
0
TABLE
2
VPORT
5
8
100
AcDbSymbolTable
0
ENDTAB
0
TABLE
2
LTYPE
5
5
100
AcDbSymbolTable
70
2
0
LTYPE
5
14
100
AcDbSymbolTableRecord
100
AcDbLinetypeTableRecord
2
BYBLOCK
70
0
0
LTYPE
5
15
100
AcDbSymbolTableRecord
100
AcDbLinetypeTableRecord
2
BYLAYER
70
0
0
ENDTAB
0
TABLE
2
LAYER
5
2
100
AcDbSymbolTable
70
3
0
LAYER
5
50
100
AcDbSymbolTableRecord
100
AcDbLayerTableRecord
2
0
70
0
6
CONTINUOUS
0
LAYER
5
51
100
AcDbSymbolTableRecord
100
AcDbLayerTableRecord
2
CUTOUTS
70
0
62
1
6
CONTINUOUS
0
LAYER
5
52
100
AcDbSymbolTableRecord
100
AcDbLayerTableRecord
2
PERIMETER
70
0
62
5
6
CONTINUOUS
0
ENDTAB
0
TABLE
2
STYLE
5
3
100
AcDbSymbolTable
70
1
0
STYLE
5
11
100
AcDbSymbolTableRecord
100
AcDbTextStyleTableRecord
2
STANDARD
70
0
0
ENDTAB
0
TABLE
2
VIEW
5
6
100
AcDbSymbolTable
0
ENDTAB
0
TABLE
2
UCS
5
7
100
AcDbSymbolTable
0
ENDTAB
0
TABLE
2
APPID
5
9
100
AcDbSymbolTable
70
1
0
APPID
5
12
100
AcDbSymbolTableRecord
100
AcDbRegAppTableRecord
2
ACAD
70
0
0
ENDTAB
0
TABLE
2
DIMSTYLE
5
A
100
AcDbSymbolTable
0
ENDTAB
0
TABLE
2
BLOCK_RECORD
5
1
100
AcDbSymbolTable
70
2
0
BLOCK_RECORD
5
1F
100
AcDbSymbolTableRecord
100
AcDbBlockTableRecord
2
*MODEL_SPACE
0
BLOCK_RECORD
5
1B
100
AcDbSymbolTableRecord
100
AcDbBlockTableRecord
2
*PAPER_SPACE
0
ENDTAB
0
ENDSEC
0
SECTION
2
BLOCKS
0
BLOCK
5
20
100
AcDbEntity
100
AcDbBlockBegin
2
*MODEL_SPACE
0
ENDBLK
5
21
100
AcDbEntity
100
AcDbBlockEnd
0
BLOCK
5
1C
100
AcDbEntity
100
AcDbBlockBegin
2
*PAPER_SPACE
0
ENDBLK
5
1D
100
AcDbEntity
100
AcDbBlockEnd
0
ENDSEC
0
SECTION
2
ENTITIES
0
LINE
5
100
100
AcDbEntity
8
PERIMETER
100
AcDbLine
10
-3.8096859944165828
20
33.640689827509433
30
0
11
-3.8096859944165828
21
29.5801182994275
31
0
0
LINE
5
101
100
AcDbEntity
8
PERIMETER
100
AcDbLine
10
-3.8096859944165828
20
29.5801182994275
30
0
11
-1.6620114052607349
21
30.556475683067568
31
0
0
LINE
5
102
100
AcDbEntity
8
PERIMETER
100
AcDbLine
10
-1.6620114052607349
20
30.556475683067568
30
0
11
-2.091956883309436
21
28.836693770872763
31
0
0
SPLINE
5
103
100
AcDbEntity
8
PERIMETER
100
AcDbSpline
70
0
71
3
72
17
73
13
74
0
42
0.000000001
43
0.0000000001
44
0.0000000001
40
-0.98969195020004574
40
-0.98969195020004574
40
-0.98969195020004574
40
-0.98969195020004574
40
-0.54403484331009966
40
-0.54403484331009966
40
-0.54403484331009966
40
-0.11100426785083245
40
-0.11100426785083245
40
-0.11100426785083245
40
0
40
0
40
0
40
0.013598718009940539
40
0.013598718009940539
40
0.013598718009940539
40
0.013598718009940539
10
-2.0919568833093649
20
28.836693770872746
30
0
10
-2.9219317872918893
20
28.567524838844189
30
0
10
-3.6904999923998361
20
28.402572427781205
30
0
10
-4.4542443538581722
20
28.184434847329332
30
0
10
-5.1963500113984651
20
27.972477626111498
30
0
10
-5.95839652495048
20
27.616495891396706
30
0
10
-6.7712536110514421
20
26.958757544035308
30
0
10
-6.9796236680948809
20
26.790151057971752
30
0
10
-7.1909460894050881
20
26.604478207946194
30
0
10
-7.4052995033681057
20
26.402068024448049
30
0
10
-7.4313348318115402
20
26.377483318703252
30
0
10
-7.4573701602549747
20
26.352898612958473
30
0
10
-7.4834054886985513
20
26.328313907213605
30
0
0
SPLINE
5
104
100
AcDbEntity
8
PERIMETER
100
AcDbSpline
70
0
71
3
72
17
73
13
74
0
42
0.000000001
43
0.0000000001
44
0.0000000001
40
-1.0190743937997364
40
-1.0190743937997364
40
-1.0190743937997364
40
-1.0190743937997364
40
-1
40
-1
40
-1
40
-0.60789656860859675
40
-0.60789656860859675
40
-0.60789656860859675
40
-0.2215085287641072
40
-0.2215085287641072
40
-0.2215085287641072
40
-0.008020256115546227
40
-0.008020256115546227
40
-0.008020256115546227
40
-0.008020256115546227
10
-7.4834054886983381
20
26.32831390721357
30
0
10
-7.4594441764081054
20
26.301703728765293
30
0
10
-7.4354828641180504
20
26.275093550317088
30
0
10
-7.4115215518279953
20
26.248483371868883
30
0
10
-6.9364852609031402
20
25.720932947340653
30
0
10
-6.3858079178370986
20
24.719433367897405
30
0
10
-5.8735889403313024
20
23.339895369324619
30
0
10
-5.3688361867343559
20
21.980465840059811
30
0
10
-4.9489624199533111
20
20.322444294139572
30
0
10
-4.7728542979128008
20
18.654789025013727
30
0
10
-4.6755505128656694
20
17.733371159900102
30
0
10
-4.6437928944877527
20
16.800405926673552
30
0
10
-4.6741530575497592
20
15.860958808765737
30
0
0
LINE
5
105
100
AcDbEntity
8
PERIMETER
100
AcDbLine
10
-4.6741530575497592
20
15.860958808765737
30
0
11
-8.1100052601099293
21
15.860958808765631
31
0
0
LINE
5
106
100
AcDbEntity
8
PERIMETER
100
AcDbLine
10
-8.1100052601099293
20
15.860958808765631
30
0
11
-8.1100052601099293
21
11.886162206327597
31
0
0
LINE
5
107
100
AcDbEntity
8
PERIMETER
100
AcDbLine
10
-8.1100052601099293
20
11.886162206327597
30
0
11
-5.6649894709546444
21
11.886162206327597
31
0
0
SPLINE
5
108
100
AcDbEntity
8
PERIMETER
100
AcDbSpline
70
0
71
3
72
32
73
28
74
0
42
0.000000001
43
0.0000000001
44
0.0000000001
40
-0.99809409407590677
40
-0.99809409407590677
40
-0.99809409407590677
40
-0.99809409407590677
40
-0.86478755688039399
40
-0.86478755688039399
40
-0.86478755688039399
40
-0.74112830609506097
40
-0.74112830609506097
40
-0.74112830609506097
40
-0.62004601565426576
40
-0.62004601565426576
40
-0.62004601565426576
40
-0.48763411514479088
40
-0.48763411514479088
40
-0.48763411514479088
40
-0.34681387591148771
40
-0.34681387591148771
40
-0.34681387591148771
40
-0.2264910769818147
40
-0.2264910769818147
40
-0.2264910769818147
40
-0.06297543820127588
40
-0.06297543820127588
40
-0.06297543820127588
40
0
40
0
40
0
40
0.0011164992497786955
40
0.0011164992497786955
40
0.0011164992497786955
40
0.0011164992497786955
10
-5.6649894709546444
20
11.886162206327633
30
0
10
-5.1166630329310436
20
10.070838211716424
30
0
10
-4.7505136036037854
20
8.5219904656623058
30
0
10
-4.5206445038167331
20
7.1212588101534813
30
0
10
-4.3074108450901605
20
5.8218969730255665
30
0
10
-4.187659113401061
20
4.5878591343632635
30
0
10
-4.0531192686446005
20
3.1499399448894749
30
0
10
-3.9213831271493049
20
1.7419858466352167
30
0
10
-3.7900868077412042
20
0.1990500157316788
30
0
10
-3.7750030831686132
20
-1.2986444767251371
30
0
10
-3.7585079819432821
20
-2.9364775025692325
30
0
10
-3.8824196805355982
20
-4.5678465522451006
30
0
10
-4.1567955857310324
20
-6.5958456588959891
30
0
10
-4.4485947401938475
20
-8.7526255122526564
30
0
10
-4.9092143295192159
20
-11.370369664228939
30
0
10
-5.6466666156458345
20
-13.820660028200109
30
0
10
-6.2767771993726029
20
-15.914292281550892
30
0
10
-7.1173344705472275
20
-17.819376979105108
30
0
10
-8.1272143502841843
20
-19.458377672895324
30
0
10
-9.4996155501874568
20
-21.685738138167565
30
0
10
-11.152322109077879
20
-23.523440667060775
30
0
10
-12.939200294990059
20
-25.244144732971421
30
0
10
-13.627387905724646
20
-25.906846437674282
30
0
10
-14.338205745607873
20
-26.546786048693498
30
0
10
-15.070931775138767
20
-27.164963538970888
30
0
10
-15.083954516759164
20
-27.175950409106484
30
0
10
-15.096977258379596
20
-27.18693727924208
30
0
10
-15.110000000000063
20
-27.197924149377641
30
0
0
LINE
5
109
100
AcDbEntity
8
PERIMETER
100
AcDbLine
10
-15.110000000000099
20
-27.197924149377677
30
0
11
-15.110000000000028
21
-37.359039000763659
31
0
0
LINE
5
10A
100
AcDbEntity
8
PERIMETER
100
AcDbLine
10
-15.110000000000028
20
-37.359039000763659
30
0
11
-4.8900000000000432
21
-37.359039000763659
31
0
0
LINE
5
10B
100
AcDbEntity
8
PERIMETER
100
AcDbLine
10
-4.8900000000000432
20
-37.359039000763659
30
0
11
-4.8900000000000432
21
-27.359039000763659
31
0
0
LINE
5
10C
100
AcDbEntity
8
PERIMETER
100
AcDbLine
10
-4.8900000000000432
20
-27.359039000763659
30
0
11
4.8899999999999721
21
-27.359039000763659
31
0
0
LINE
5
10D
100
AcDbEntity
8
PERIMETER
100
AcDbLine
10
4.8899999999999721
20
-27.359039000763659
30
0
11
4.8899999999999721
21
-37.359039000763659
31
0
0
LINE
5
10E
100
AcDbEntity
8
PERIMETER
100
AcDbLine
10
4.8899999999999721
20
-37.359039000763659
30
0
11
15.109999999999957
21
-37.359039000763659
31
0
0
LINE
5
10F
100
AcDbEntity
8
PERIMETER
100
AcDbLine
10
15.109999999999957
20
-37.359039000763659
30
0
11
15.110000000000383
21
-27.197924149377961
31
0
0
SPLINE
5
110
100
AcDbEntity
8
PERIMETER
100
AcDbSpline
70
0
71
3
72
32
73
28
74
0
42
0.000000001
43
0.0000000001
44
0.0000000001
40
-0.0011164992498338554
40
-0.0011164992498338554
40
-0.0011164992498338554
40
-0.0011164992498338554
40
0
40
0
40
0
40
0.17092777774163434
40
0.17092777774163434
40
0.17092777774163434
40
0.29638176041703235
40
0.29638176041703235
40
0.29638176041703235
40
0.47228632031277429
40
0.47228632031277429
40
0.47228632031277429
40
0.58782540561397545
40
0.58782540561397545
40
0.58782540561397545
40
0.69857644386989193
40
0.69857644386989193
40
0.69857644386989193
40
0.80891796026028784
40
0.80891796026028784
40
0.80891796026028784
40
0.93821583173129741
40
0.93821583173129741
40
0.93821583173129741
40
0.99809409407590477
40
0.99809409407590477
40
0.99809409407590477
40
0.99809409407590477
10
15.110000000002017
20
-27.197924149379418
30
0
10
15.096977258380804
20
-27.186937279243217
30
0
10
15.083954516759732
20
-27.175950409107053
30
0
10
15.070931775138661
20
-27.164963538970852
30
0
10
13.082168608127915
20
-25.487107732311607
30
0
10
11.239759646020708
20
-23.677260487007992
30
0
10
9.6204784796869447
20
-21.599253588731315
30
0
10
8.4319924765815912
20
-20.074081701164772
30
0
10
7.3776374403435696
20
-18.363705321103367
30
0
10
6.5449405653996351
20
-16.356567204645636
30
0
10
5.3773795666183943
20
-13.542270364512703
30
0
10
4.670945278604286
20
-10.113480466041267
30
0
10
4.2584402873420757
20
-7.3148272052074859
30
0
10
3.9874953533343316
20
-5.476592664706601
30
0
10
3.8328308038792969
20
-3.9418059660809845
30
0
10
3.7875773276815039
20
-2.4978965396281438
30
0
10
3.744199197583562
20
-1.1138240613817274
30
0
10
3.8124181567005522
20
0.26187531882005288
30
0
10
3.9197763631202065
20
1.620256603618806
30
0
10
4.0267375932797123
20
2.9736150295207153
30
0
10
4.1484192482871407
20
4.2302623444299137
30
0
10
4.2816965113085104
20
5.3826346733285568
30
0
10
4.4378704246991418
20
6.7329812531373356
30
0
10
4.6466587211138588
20
8.0299127405790749
30
0
10
5.0296821695536664
20
9.5839806101813529
30
0
10
5.2070615669782683
20
10.303674465452843
30
0
10
5.4185962628517714
20
11.070437353828435
30
0
10
5.6649894709544313
20
11.886162206327562
30
0
0
LINE
5
111
100
AcDbEntity
8
PERIMETER
100
AcDbLine
10
5.6649894709544313
20
11.886162206327544
30
0
11
8.1100052601098582
21
11.886162206327597
31
0
0
LINE
5
112
100
AcDbEntity
8
PERIMETER
100
AcDbLine
10
8.1100052601098582
20
11.886162206327597
30
0
11
8.1100052601098582
21
15.860958808765631
31
0
0
LINE
5
113
100
AcDbEntity
8
PERIMETER
100
AcDbLine
10
8.1100052601098582
20
15.860958808765631
30
0
11
4.6741530575496881
21
15.860958808765631
31
0
0
SPLINE
5
114
100
AcDbEntity
8
PERIMETER
100
AcDbSpline
70
0
71
3
72
17
73
13
74
0
42
0.000000001
43
0.0000000001
44
0.0000000001
40
0.0080202561155346148
40
0.0080202561155346148
40
0.0080202561155346148
40
0.0080202561155346148
40
0.43014171386276973
40
0.43014171386276973
40
0.43014171386276973
40
0.84157055757785382
40
0.84157055757785382
40
0.84157055757785382
40
1
40
1
40
1
40
1.0190743937997808
40
1.0190743937997808
40
1.0190743937997808
40
1.0190743937997808
10
4.6741530575496881
20
15.860958808765577
30
0
10
4.6140937996544906
20
17.719397336189502
30
0
10
4.8097261495961874
20
19.575978816591952
30
0
10
5.240993073890472
20
21.296649721614287
30
0
10
5.6613357234726536
20
22.973734901423928
30
0
10
6.2697843152549737
20
24.456292887314142
30
0
10
6.8099109324258933
20
25.389928044473997
30
0
10
7.017898194629133
20
25.749444154328902
30
0
10
7.219583076730629
20
26.035326554262959
30
0
10
7.4115215518278887
20
26.248483371868883
30
0
10
7.4354828641180148
20
26.275093550317159
30
0
10
7.4594441764081409
20
26.301703728765435
30
0
10
7.4834054886983026
20
26.328313907213712
30
0
0
SPLINE
5
115
100
AcDbEntity
8
PERIMETER
100
AcDbSpline
70
0
71
3
72
17
73
13
74
0
42
0.000000001
43
0.0000000001
44
0.0000000001
40
-0.013598718009901034
40
-0.013598718009901034
40
-0.013598718009901034
40
-0.013598718009901034
40
0
40
0
40
0
40
0.45714943049394918
40
0.45714943049394918
40
0.45714943049394918
40
0.88771857029402945
40
0.88771857029402945
40
0.88771857029402945
40
0.98969195020003198
40
0.98969195020003198
40
0.98969195020003198
40
0.98969195020003198
10
7.4834054886981249
20
26.328313907213889
30
0
10
7.457370160254797
20
26.352898612958597
30
0
10
7.4313348318113981
20
26.377483318703341
30
0
10
7.4052995033679991
20
26.402068024448067
30
0
10
6.5225267684587962
20
27.235654893705767
30
0
10
5.6942090421183522
20
27.761124214605193
30
0
10
4.9028475490500156
20
28.042091994904279
30
0
10
4.1574986223912447
20
28.306723311067579
30
0
10
3.4352597363551141
20
28.432377996074152
30
0
10
2.654525623618369
20
28.662476852938941
30
0
10
2.4696212983324273
20
28.716972068638569
30
0
10
2.2820982888748631
20
28.77502906411479
30
0
10
2.0919568833094004
20
28.83669377087271
30
0
0
LINE
5
116
100
AcDbEntity
8
PERIMETER
100
AcDbLine
10
2.0919568833094004
20
28.83669377087271
30
0
11
1.6620114052606638
21
30.556475683067568
31
0
0
LINE
5
117
100
AcDbEntity
8
PERIMETER
100
AcDbLine
10
1.6620114052606638
20
30.556475683067568
30
0
11
3.8096859944165118
21
29.5801182994275
31
0
0
LINE
5
118
100
AcDbEntity
8
PERIMETER
100
AcDbLine
10
3.8096859944165118
20
29.5801182994275
30
0
11
3.8096859944165118
21
33.640689827509433
31
0
0
LINE
5
119
100
AcDbEntity
8
PERIMETER
100
AcDbLine
10
3.8096859944165118
20
33.640689827509433
30
0
11
1.6334883605941997
21
33.096640419053855
31
0
0
LINE
5
11A
100
AcDbEntity
8
PERIMETER
100
AcDbLine
10
1.6334883605941997
20
33.096640419053855
30
0
11
2.1528406360105379
21
36.525481888425304
31
0
0
SPLINE
5
11B
100
AcDbEntity
8
PERIMETER
100
AcDbSpline
70
0
71
3
72
14
73
10
74
0
42
0.000000001
43
0.0000000001
44
0.0000000001
40
-0.032835145684755845
40
-0.032835145684755845
40
-0.032835145684755845
40
-0.032835145684755845
40
0
40
0
40
0
40
1
40
1
40
1
40
1.0078102868285188
40
1.0078102868285188
40
1.0078102868285188
40
1.0078102868285188
10
2.1528406360098984
20
36.525481888425745
30
0
10
2.1333105943736541
20
36.538401424773888
30
0
10
2.1137805527373743
20
36.551320961122045
30
0
10
2.0942505111011656
20
36.564240497470202
30
0
10
1.4875796569856092
20
36.965566121711021
30
0
10
0.79025079587712099
20
37.230778123070621
30
0
10
0.017819866378374627
20
37.357586006075927
30
0
10
0.011879910919034842
20
37.358561152394088
30
0
10
0.0059399554596950566
20
37.359536298712271
30
0
10
3.907985046680551e-13
20
37.360511445030454
30
0
0
SPLINE
5
11C
100
AcDbEntity
8
PERIMETER
100
AcDbSpline
70
0
71
3
72
14
73
10
74
0
42
0.000000001
43
0.0000000001
44
0.0000000001
40
-1.0078102868287946
40
-1.0078102868287946
40
-1.0078102868287946
40
-1.0078102868287946
40
-1
40
-1
40
-1
40
0
40
0
40
0
40
0.032835145685093776
40
0.032835145685093776
40
0.032835145685093776
40
0.032835145685093776
10
1.0658141036401503e-13
20
37.360511445030582
30
0
10
-0.0059399554593397852
20
37.359536298712328
30
0
10
-0.011879910918892733
20
37.358561152394131
30
0
10
-0.017819866378410154
20
37.357586006075927
30
0
10
-0.79025079587736968
20
37.230778123070593
30
0
10
-1.4875796569946331
20
36.965566121705095
30
0
10
-2.0942505111012011
20
36.564240497470223
30
0
10
-2.1137805527376941
20
36.551320961121903
30
0
10
-2.1333105943741515
20
36.538401424773603
30
0
10
-2.1528406360105379
20
36.525481888425318
30
0
0
LINE
5
11D
100
AcDbEntity
8
PERIMETER
100
AcDbLine
10
-2.1528406360105024
20
36.525481888425318
30
0
11
-1.6334883605942707
21
33.096640419053855
31
0
0
LINE
5
11E
100
AcDbEntity
8
PERIMETER
100
AcDbLine
10
-1.6334883605942707
20
33.096640419053855
30
0
11
-3.8096859944165828
21
33.640689827509433
31
0
0
ENDSEC
0
SECTION
2
OBJECTS
0
DICTIONARY
5
C
100
AcDbDictionary
3
ACAD_GROUP
350
D
3
ACAD_MLINESTYLE
350
17
0
DICTIONARY
5
D
100
AcDbDictionary
0
DICTIONARY
5
1A
330
C
100
AcDbDictionary
0
DICTIONARY
5
17
100
AcDbDictionary
0
ENDSEC
0
EOF
