0
SECTION
2
HEADER
9
$INSUNITS
70
4
9
$ACADVER
1
AC1014
9
$HANDSEED
5
FFFF
0
ENDSEC
0
SECTION
2
TABLES
0
TABLE
2
VPORT
5
8
100
AcDbSymbolTable
0
ENDTAB
0
TABLE
2
LTYPE
5
5
100
AcDbSymbolTable
70
2
0
LTYPE
5
14
100
AcDbSymbolTableRecord
100
AcDbLinetypeTableRecord
2
BYBLOCK
70
0
0
LTYPE
5
15
100
AcDbSymbolTableRecord
100
AcDbLinetypeTableRecord
2
BYLAYER
70
0
0
ENDTAB
0
TABLE
2
LAYER
5
2
100
AcDbSymbolTable
70
3
0
LAYER
5
50
100
AcDbSymbolTableRecord
100
AcDbLayerTableRecord
2
0
70
0
6
CONTINUOUS
0
LAYER
5
51
100
AcDbSymbolTableRecord
100
AcDbLayerTableRecord
2
CUTOUTS
70
0
62
1
6
CONTINUOUS
0
LAYER
5
52
100
AcDbSymbolTableRecord
100
AcDbLayerTableRecord
2
PERIMETER
70
0
62
5
6
CONTINUOUS
0
ENDTAB
0
TABLE
2
STYLE
5
3
100
AcDbSymbolTable
70
1
0
STYLE
5
11
100
AcDbSymbolTableRecord
100
AcDbTextStyleTableRecord
2
STANDARD
70
0
0
ENDTAB
0
TABLE
2
VIEW
5
6
100
AcDbSymbolTable
0
ENDTAB
0
TABLE
2
UCS
5
7
100
AcDbSymbolTable
0
ENDTAB
0
TABLE
2
APPID
5
9
100
AcDbSymbolTable
70
1
0
APPID
5
12
100
AcDbSymbolTableRecord
100
AcDbRegAppTableRecord
2
ACAD
70
0
0
ENDTAB
0
TABLE
2
DIMSTYLE
5
A
100
AcDbSymbolTable
0
ENDTAB
0
TABLE
2
BLOCK_RECORD
5
1
100
AcDbSymbolTable
70
2
0
BLOCK_RECORD
5
1F
100
AcDbSymbolTableRecord
100
AcDbBlockTableRecord
2
*MODEL_SPACE
0
BLOCK_RECORD
5
1B
100
AcDbSymbolTableRecord
100
AcDbBlockTableRecord
2
*PAPER_SPACE
0
ENDTAB
0
ENDSEC
0
SECTION
2
BLOCKS
0
BLOCK
5
20
100
AcDbEntity
100
AcDbBlockBegin
2
*MODEL_SPACE
0
ENDBLK
5
21
100
AcDbEntity
100
AcDbBlockEnd
0
BLOCK
5
1C
100
AcDbEntity
100
AcDbBlockBegin
2
*PAPER_SPACE
0
ENDBLK
5
1D
100
AcDbEntity
100
AcDbBlockEnd
0
ENDSEC
0
SECTION
2
ENTITIES
0
LINE
5
100
100
AcDbEntity
8
PERIMETER
100
AcDbLine
10
-4.5745540190833367
20
13.668256056186863
30
0
11
-8.8496566714159286
21
13.668256056187005
31
0
0
LINE
5
101
100
AcDbEntity
8
PERIMETER
100
AcDbLine
10
-8.8496566714159286
20
13.668256056187005
30
0
11
-8.8496566714159286
21
10.261536076255631
31
0
0
LINE
5
102
100
AcDbEntity
8
PERIMETER
100
AcDbLine
10
-8.8496566714159286
20
10.261536076255631
30
0
11
-5.9397513501772181
21
10.261536076255631
31
0
0
SPLINE
5
103
100
AcDbEntity
8
PERIMETER
100
AcDbSpline
70
0
71
3
72
17
73
13
74
0
42
0.000000001
43
0.0000000001
44
0.0000000001
40
-0.99688188227550378
40
-0.99688188227550378
40
-0.99688188227550378
40
-0.99688188227550378
40
-0.62503784328848633
40
-0.62503784328848633
40
-0.62503784328848633
40
-0.25754276203398135
40
-0.25754276203398135
40
-0.25754276203398135
40
0
40
0
40
0
40
0.0016363561361467721
40
0.0016363561361467721
40
0.0016363561361467721
40
0.0016363561361467721
10
-5.9397513501772181
20
10.261536076255595
30
0
10
-5.4654685031956518
20
6.4344758425513859
30
0
10
-5.4157046748768067
20
2.5481648921282485
30
0
10
-5.9609584914128533
20
-1.2732216948893793
30
0
10
-6.4998352101525114
20
-5.0499146818917851
30
0
10
-7.6664730128246106
20
-8.7034303253416212
30
0
10
-9.679979986689986
20
-11.832541607604909
30
0
10
-11.091057777591971
20
-14.025441603966158
30
0
10
-12.897841152211029
20
-15.980394946496972
30
0
10
-15.068464418558278
20
-17.7064848416601
30
0
10
-15.0823096123721
20
-17.717494605311472
30
0
10
-15.096154806185993
20
-17.728504368962845
30
0
10
-15.10999999999953
20
-17.739514132614111
30
0
0
LINE
5
104
100
AcDbEntity
8
PERIMETER
100
AcDbLine
10
-15.109999999999459
20
-17.739514132614147
30
0
11
-15.110000000000028
21
-27.902581435039195
31
0
0
LINE
5
105
100
AcDbEntity
8
PERIMETER
100
AcDbLine
10
-15.110000000000028
20
-27.902581435039195
30
0
11
-4.8899999999999721
21
-27.902581435039195
31
0
0
LINE
5
106
100
AcDbEntity
8
PERIMETER
100
AcDbLine
10
-4.8899999999999721
20
-27.902581435039195
30
0
11
-4.8899999999999721
21
-17.902581435039195
31
0
0
LINE
5
107
100
AcDbEntity
8
PERIMETER
100
AcDbLine
10
-4.8899999999999721
20
-17.902581435039195
30
0
11
4.8899999999999721
21
-17.902581435039195
31
0
0
LINE
5
108
100
AcDbEntity
8
PERIMETER
100
AcDbLine
10
4.8899999999999721
20
-17.902581435039195
30
0
11
4.8899999999999721
21
-27.902581435039195
31
0
0
LINE
5
109
100
AcDbEntity
8
PERIMETER
100
AcDbLine
10
4.8899999999999721
20
-27.902581435039195
30
0
11
15.110000000000028
21
-27.902581435039195
31
0
0
LINE
5
10A
100
AcDbEntity
8
PERIMETER
100
AcDbLine
10
15.110000000000028
20
-27.902581435039195
30
0
11
15.109999999999957
21
-17.739514132614289
31
0
0
SPLINE
5
10B
100
AcDbEntity
8
PERIMETER
100
AcDbSpline
70
0
71
3
72
17
73
13
74
0
42
0.000000001
43
0.0000000001
44
0.0000000001
40
-0.0016363561361375208
40
-0.0016363561361375208
40
-0.0016363561361375208
40
-0.0016363561361375208
40
0
40
0
40
0
40
0.36013456650267434
40
0.36013456650267434
40
0.36013456650267434
40
0.76346696896199906
40
0.76346696896199906
40
0.76346696896199906
40
0.99688188227550611
40
0.99688188227550611
40
0.99688188227550611
40
0.99688188227550611
10
15.109999999999815
20
-17.739514132614183
30
0
10
15.09615480618578
20
-17.728504368962703
30
0
10
15.082309612372029
20
-17.717494605311401
30
0
10
15.068464418558278
20
-17.7064848416601
30
0
10
12.033176364283804
20
-15.292809414597599
30
0
10
9.7145535802145844
20
-12.419819651108206
30
0
10
8.1824683288742506
20
-9.1029894192327276
30
0
10
6.4666107504237402
20
-5.3883082128061588
30
0
10
5.7278355397704672
20
-1.1613712817236177
30
0
10
5.5950248148033666
20
3.0215073983661611
30
0
10
5.5181651237240459
20
5.4422062030265295
30
0
10
5.642063107381361
20
7.8594444904250693
30
0
10
5.9397513501775023
20
10.261536076255595
30
0
0
LINE
5
10C
100
AcDbEntity
8
PERIMETER
100
AcDbLine
10
5.9397513501775023
20
10.261536076255595
30
0
11
8.8496566714159286
21
10.261536076255631
31
0
0
LINE
5
10D
100
AcDbEntity
8
PERIMETER
100
AcDbLine
10
8.8496566714159286
20
10.261536076255631
30
0
11
8.8496566714159286
21
13.668256056187005
31
0
0
LINE
5
10E
100
AcDbEntity
8
PERIMETER
100
AcDbLine
10
8.8496566714159286
20
13.668256056187005
30
0
11
4.5745540190832656
21
13.668256056187005
31
0
0
SPLINE
5
10F
100
AcDbEntity
8
PERIMETER
100
AcDbSpline
70
0
71
3
72
17
73
13
74
0
42
0.000000001
43
0.0000000001
44
0.0000000001
40
0.031515508763486189
40
0.031515508763486189
40
0.031515508763486189
40
0.031515508763486189
40
0.40574717444503089
40
0.40574717444503089
40
0.40574717444503089
40
0.82608527140047294
40
0.82608527140047294
40
0.82608527140047294
40
1
40
1
40
1
40
1.0009338846456921
40
1.0009338846456921
40
1.0009338846456921
40
1.0009338846456921
10
4.5745540190832656
20
13.668256056186863
30
0
10
5.112681513969406
20
14.388380479408855
30
0
10
5.6929260440119833
20
15.303151572541136
30
0
10
6.2402631159088884
20
16.366691518614296
30
0
10
6.8550337093467562
20
17.561262683922667
30
0
10
7.3669486127620587
20
18.882760802662464
30
0
10
7.5177946493295167
20
20.045337980839797
30
0
10
7.5802071398936022
20
20.526353848502517
30
0
10
7.5883246618666789
20
20.986534398816321
30
0
10
7.5434778361958621
20
21.425351910018318
30
0
10
7.5432420128342415
20
21.427659395979219
30
0
10
7.5430061894726919
20
21.429966881940086
30
0
10
7.5427703661110712
20
21.432274367902089
30
0
0
SPLINE
5
110
100
AcDbEntity
8
PERIMETER
100
AcDbSpline
70
0
71
3
72
26
73
22
74
0
42
0.000000001
43
0.0000000001
44
0.0000000001
40
-0.00077104885972447464
40
-0.00077104885972447464
40
-0.00077104885972447464
40
-0.00077104885972447464
40
0
40
0
40
0
40
0.23657716142088506
40
0.23657716142088506
40
0.23657716142088506
40
0.42365102508687735
40
0.42365102508687735
40
0.42365102508687735
40
0.61504704315228964
40
0.61504704315228964
40
0.61504704315228964
40
0.87844225575698487
40
0.87844225575698487
40
0.87844225575698487
40
1
40
1
40
1
40
1.0008806574219355
40
1.0008806574219355
40
1.0008806574219355
40
1.0008806574219355
10
7.5427703661112844
20
21.432274367899868
30
0
10
7.5422456466606747
20
21.434533742508712
30
0
10
7.5417209272102781
20
21.436793117116402
30
0
10
7.5411962077598815
20
21.439052491723984
30
0
10
7.3801870899897182
20
22.132337087954372
30
0
10
7.2327799280215288
20
22.915509875713482
30
0
10
6.9546322483726897
20
23.732792445784288
30
0
10
6.7346864142561458
20
24.379060273040913
30
0
10
6.3726461763372555
20
25.029391036811113
30
0
10
5.8161426555363249
20
25.552966343682879
30
0
10
5.2467816778272436
20
26.088638334033973
30
0
10
4.535720693874552
20
26.491827772132321
30
0
10
3.9609254219168122
20
26.791979107286625
30
0
10
3.1699041436698394
20
27.2050411215106
30
0
10
2.5826296642404145
20
27.449958446722977
30
0
10
1.5994334817851552
20
27.653069218972863
30
0
10
1.1456852571848231
20
27.746805498618947
30
0
10
0.61837984890019015
20
27.829167385891793
30
0
10
0.013105553835401906
20
27.901797937723849
30
0
10
0.0087370358900784595
20
27.902322142818381
30
0
10
0.0043685179446839584
20
27.902846347912913
30
0
10
-1.1368683772161603e-12
20
27.903370553007498
30
0
0
SPLINE
5
111
100
AcDbEntity
8
PERIMETER
100
AcDbSpline
70
0
71
3
72
26
73
22
74
0
42
0.000000001
43
0.0000000001
44
0.0000000001
40
-1.0008806574218265
40
-1.0008806574218265
40
-1.0008806574218265
40
-1.0008806574218265
40
-1
40
-1
40
-1
40
-0.76768223621601472
40
-0.76768223621601472
40
-0.76768223621601472
40
-0.58347932039937234
40
-0.58347932039937234
40
-0.58347932039937234
40
-0.37109203180935335
40
-0.37109203180935335
40
-0.37109203180935335
40
-0.096694459269067223
40
-0.096694459269067223
40
-0.096694459269067223
40
0
40
0
40
0
40
0.00077104887048021307
40
0.00077104887048021307
40
0.00077104887048021307
40
0.00077104887048021307
10
-9.2370555648813024e-13
20
27.90337055300725
30
0
10
-0.0043685179456787182
20
27.902846347912771
30
0
10
-0.0087370358905047851
20
27.90232214281831
30
0
10
-0.013105553835330852
20
27.901797937723849
30
0
10
-1.1698888717641864
20
27.762988456772248
30
0
10
-2.015484595149033
20
27.593653515688246
30
0
10
-2.6811035971438457
20
27.362876754172998
30
0
10
-3.2088676346128153
20
27.179895686856259
30
0
10
-3.6697605315607973
20
26.956249203785312
30
0
10
-4.2531981597853985
20
26.635389809109373
30
0
10
-4.9259059471222599
20
26.265436616176796
30
0
10
-5.7249606142815423
20
25.747935027661182
30
0
10
-6.2458167889818839
20
25.085503799803135
30
0
10
-6.9187462798624466
20
24.229663875927052
30
0
10
-7.1273907501048228
20
23.203016550244797
30
0
10
-7.3340999916569416
20
22.327106669365442
30
0
10
-7.4069418836342038
20
22.018446386710693
30
0
10
-7.4753881243140086
20
21.722413652832806
30
0
10
-7.5411962077599526
20
21.439052491723842
30
0
10
-7.5417209272175967
20
21.436793117084783
30
0
10
-7.5422456466753118
20
21.434533742445598
30
0
10
-7.5427703661335954
20
21.432274367804833
30
0
0
SPLINE
5
112
100
AcDbEntity
8
PERIMETER
100
AcDbSpline
70
0
71
3
72
17
73
13
74
0
42
0.000000001
43
0.0000000001
44
0.0000000001
40
-1.0009338846327513
40
-1.0009338846327513
40
-1.0009338846327513
40
-1.0009338846327513
40
-1
40
-1
40
-1
40
-0.57407970570310596
40
-0.57407970570310596
40
-0.57407970570310596
40
-0.17858287896727565
40
-0.17858287896727565
40
-0.17858287896727565
40
-0.031515508763467662
40
-0.031515508763467662
40
-0.031515508763467662
40
-0.031515508763467662
10
-7.5427703661209478
20
21.432274367803146
30
0
10
-7.5430061894790867
20
21.429966881876297
30
0
10
-7.5432420128375099
20
21.427659395947458
30
0
10
-7.543477836195791
20
21.42535191001862
30
0
10
-7.6533085178282789
20
20.350679942791441
30
0
10
-7.4217115091114749
20
19.121410721987182
30
0
10
-6.9192049241588904
20
17.850031065544201
30
0
10
-6.4525923620815462
20
16.66946600106483
30
0
10
-5.8081976809835822
20
15.512082984938242
30
0
10
-5.2193380876788353
20
14.59966581084208
30
0
10
-5.0003678559291842
20
14.260379158580925
30
0
10
-4.7852247978192253
20
13.950176557311789
30
0
10
-4.5745540190832656
20
13.668256056186863
30
0
0
ENDSEC
0
SECTION
2
OBJECTS
0
DICTIONARY
5
C
100
AcDbDictionary
3
ACAD_GROUP
350
D
3
ACAD_MLINESTYLE
350
17
0
DICTIONARY
5
D
100
AcDbDictionary
0
DICTIONARY
5
1A
330
C
100
AcDbDictionary
0
DICTIONARY
5
17
100
AcDbDictionary
0
ENDSEC
0
EOF
